<?xml version="1.0" encoding="UTF-8"?>
<svg width="307px" height="241px" viewBox="0 0 307 241" version="1.1" xmlns="http://www.w3.org/2000/svg" xmlns:xlink="http://www.w3.org/1999/xlink">
    <!-- Generator: Sketch 50.2 (55047) - http://www.bohemiancoding.com/sketch -->
    <title>Group 21</title>
    <desc>Created with Sketch.</desc>
    <defs>
        <linearGradient x1="50%" y1="100%" x2="50%" y2="0%" id="linearGradient-1">
            <stop stop-color="#808080" stop-opacity="0.25" offset="0%"></stop>
            <stop stop-color="#808080" stop-opacity="0.12" offset="54%"></stop>
            <stop stop-color="#808080" stop-opacity="0.1" offset="100%"></stop>
        </linearGradient>
        <linearGradient x1="50.0108389%" y1="100%" x2="50.0108389%" y2="-6.36401913e-14%" id="linearGradient-2">
            <stop stop-color="#808080" stop-opacity="0.25" offset="0%"></stop>
            <stop stop-color="#808080" stop-opacity="0.12" offset="54%"></stop>
            <stop stop-color="#808080" stop-opacity="0.1" offset="100%"></stop>
        </linearGradient>
        <linearGradient x1="50.0108389%" y1="100%" x2="50.0108389%" y2="0%" id="linearGradient-3">
            <stop stop-color="#808080" stop-opacity="0.25" offset="0%"></stop>
            <stop stop-color="#808080" stop-opacity="0.12" offset="54%"></stop>
            <stop stop-color="#808080" stop-opacity="0.1" offset="100%"></stop>
        </linearGradient>
        <linearGradient x1="49.9891611%" y1="100%" x2="49.9891611%" y2="-6.36401913e-14%" id="linearGradient-4">
            <stop stop-color="#808080" stop-opacity="0.25" offset="0%"></stop>
            <stop stop-color="#808080" stop-opacity="0.12" offset="54%"></stop>
            <stop stop-color="#808080" stop-opacity="0.1" offset="100%"></stop>
        </linearGradient>
        <linearGradient x1="49.9891611%" y1="100.022391%" x2="49.9891611%" y2="0%" id="linearGradient-5">
            <stop stop-color="#808080" stop-opacity="0.25" offset="0%"></stop>
            <stop stop-color="#808080" stop-opacity="0.12" offset="54%"></stop>
            <stop stop-color="#808080" stop-opacity="0.1" offset="100%"></stop>
        </linearGradient>
        <linearGradient x1="50.0108389%" y1="100.022391%" x2="50.0108389%" y2="0%" id="linearGradient-6">
            <stop stop-color="#808080" stop-opacity="0.25" offset="0%"></stop>
            <stop stop-color="#808080" stop-opacity="0.12" offset="54%"></stop>
            <stop stop-color="#808080" stop-opacity="0.1" offset="100%"></stop>
        </linearGradient>
        <linearGradient x1="50.0108389%" y1="100.022391%" x2="50.0108389%" y2="-6.36401913e-14%" id="linearGradient-7">
            <stop stop-color="#808080" stop-opacity="0.25" offset="0%"></stop>
            <stop stop-color="#808080" stop-opacity="0.12" offset="54%"></stop>
            <stop stop-color="#808080" stop-opacity="0.1" offset="100%"></stop>
        </linearGradient>
        <linearGradient x1="49.9891611%" y1="100%" x2="49.9891611%" y2="0%" id="linearGradient-8">
            <stop stop-color="#808080" stop-opacity="0.25" offset="0%"></stop>
            <stop stop-color="#808080" stop-opacity="0.12" offset="54%"></stop>
            <stop stop-color="#808080" stop-opacity="0.1" offset="100%"></stop>
        </linearGradient>
        <linearGradient x1="50.025523%" y1="99.9467204%" x2="50.025523%" y2="-0.00589895769%" id="linearGradient-9">
            <stop stop-color="#808080" stop-opacity="0.25" offset="0%"></stop>
            <stop stop-color="#808080" stop-opacity="0.12" offset="54%"></stop>
            <stop stop-color="#808080" stop-opacity="0.1" offset="100%"></stop>
        </linearGradient>
        <linearGradient x1="49.9892825%" y1="99.9982216%" x2="49.9892825%" y2="0.0034863853%" id="linearGradient-10">
            <stop stop-color="#808080" stop-opacity="0.25" offset="0%"></stop>
            <stop stop-color="#808080" stop-opacity="0.12" offset="54%"></stop>
            <stop stop-color="#808080" stop-opacity="0.1" offset="100%"></stop>
        </linearGradient>
        <linearGradient x1="49.9679771%" y1="100%" x2="49.9679771%" y2="0.0236395405%" id="linearGradient-11">
            <stop stop-color="#808080" stop-opacity="0.25" offset="0%"></stop>
            <stop stop-color="#808080" stop-opacity="0.12" offset="54%"></stop>
            <stop stop-color="#808080" stop-opacity="0.1" offset="100%"></stop>
        </linearGradient>
        <linearGradient x1="49.9977673%" y1="99.9985137%" x2="49.9977673%" y2="-0.00835145543%" id="linearGradient-12">
            <stop stop-color="#808080" stop-opacity="0.25" offset="0%"></stop>
            <stop stop-color="#808080" stop-opacity="0.12" offset="54%"></stop>
            <stop stop-color="#808080" stop-opacity="0.1" offset="100%"></stop>
        </linearGradient>
    </defs>
    <g id="Page-1" stroke="none" stroke-width="1" fill="none" fill-rule="evenodd">
        <g id="Altcampus-Landing-Page" transform="translate(-114.000000, -2355.000000)" fill-rule="nonzero">
            <g id="Group-21" transform="translate(114.000000, 2355.000000)">
                <g id="undraw_creation_process_vndn">
                    <rect id="Rectangle-path" fill="url(#linearGradient-1)" x="0" y="0" width="307" height="130"></rect>
                    <rect id="Rectangle-path" fill="#EEEEEE" x="4" y="1" width="301" height="128"></rect>
                    <rect id="Rectangle-path" fill="url(#linearGradient-2)" x="187" y="49" width="16" height="15"></rect>
                    <rect id="Rectangle-path" fill="#F5F5F5" x="188" y="49" width="15" height="15"></rect>
                    <rect id="Rectangle-path" fill="url(#linearGradient-3)" x="94" y="99" width="16" height="15"></rect>
                    <rect id="Rectangle-path" fill="#C277D4" x="95" y="99" width="15" height="15"></rect>
                    <rect id="Rectangle-path" fill="url(#linearGradient-4)" x="233" y="44" width="16" height="15"></rect>
                    <rect id="Rectangle-path" fill="#F5F5F5" x="234" y="45" width="15" height="15"></rect>
                    <rect id="Rectangle-path" fill="url(#linearGradient-5)" x="187" y="89" width="16" height="15"></rect>
                    <rect id="Rectangle-path" fill="#F5F5F5" x="188" y="90" width="15" height="15"></rect>
                    <rect id="Rectangle-path" fill="url(#linearGradient-6)" x="86" y="12" width="16" height="15"></rect>
                    <rect id="Rectangle-path" fill="#DA1515" x="87" y="12" width="15" height="15"></rect>
                    <rect id="Rectangle-path" fill="url(#linearGradient-3)" x="241" y="8" width="16" height="15"></rect>
                    <rect id="Rectangle-path" fill="#F5F5F5" x="241" y="8" width="15" height="15"></rect>
                    <rect id="Rectangle-path" fill="url(#linearGradient-3)" x="279" y="64" width="16" height="15"></rect>
                    <rect id="Rectangle-path" fill="#04AA8F" x="279" y="64" width="15" height="15"></rect>
                    <rect id="Rectangle-path" fill="url(#linearGradient-3)" x="29" y="5" width="16" height="15"></rect>
                    <rect id="Rectangle-path" fill="#F5F5F5" x="29" y="6" width="15" height="15"></rect>
                    <rect id="Rectangle-path" fill="url(#linearGradient-3)" x="209" y="20" width="16" height="15"></rect>
                    <rect id="Rectangle-path" fill="#7CFCFF" x="209" y="20" width="15" height="15"></rect>
                    <rect id="Rectangle-path" fill="url(#linearGradient-7)" x="113" y="52" width="16" height="15"></rect>
                    <rect id="Rectangle-path" fill="#7CFCFF" x="113" y="52" width="15" height="15"></rect>
                    <rect id="Rectangle-path" fill="url(#linearGradient-7)" x="166" y="69" width="16" height="15"></rect>
                    <rect id="Rectangle-path" fill="#7CFCFF" x="167" y="69" width="15" height="15"></rect>
                    <rect id="Rectangle-path" fill="url(#linearGradient-3)" x="185" y="12" width="16" height="15"></rect>
                    <rect id="Rectangle-path" fill="#FFFFA5" x="185" y="12" width="15" height="15"></rect>
                    <rect id="Rectangle-path" fill="url(#linearGradient-7)" x="213" y="79" width="16" height="15"></rect>
                    <rect id="Rectangle-path" fill="#FFFFA5" x="213" y="79" width="15" height="15"></rect>
                    <rect id="Rectangle-path" fill="url(#linearGradient-3)" x="116" y="12" width="16" height="15"></rect>
                    <rect id="Rectangle-path" fill="#FFFFA5" x="117" y="12" width="15" height="15"></rect>
                    <rect id="Rectangle-path" fill="url(#linearGradient-8)" x="138" y="96" width="16" height="15"></rect>
                    <rect id="Rectangle-path" fill="#FF8048" x="138" y="96" width="15" height="15"></rect>
                    <path d="M96.0756508,51.1845892 L96.0756508,52.1057943 L93.4054423,51.8737615 L93.4054423,57.633025 L86.3957121,67.5584906 L85.952409,67.3056786 L85,68.4589166 L94.0530804,74 L94.0530804,71.9220937 L93.5439745,71.63465 C94.1777594,69.3489531 96.7717752,60.233871 98.2540699,59.0252222 C98.2540699,59.0252222 100.924278,57.182812 102.378867,54.6477663 C103.833455,52.1127207 103.113087,43.3543458 96.0756508,51.1845892 Z" id="Shape" fill="url(#linearGradient-9)"></path>
                    <path d="M82.8374156,73.3455436 C82.8374156,73.3455436 73.1433545,71.372076 67.811621,69.2916549 C65.319589,68.3137715 62.6777865,67.7688118 60.0009775,67.6804498 L54.1845409,67.511394 L51.2832469,65.8346366 L52.1903341,63.5782594 C52.2803503,63.5403081 52.3703666,63.4989067 52.4569207,63.4540552 L52.5400127,62.9710387 C53.00816,62.8611747 53.470382,62.7275967 53.9248786,62.570825 C53.7829298,63.6955634 60.8769052,57.8786644 60.8769052,57.8786644 L60.6657131,57.9856181 L60.6380158,57.6406063 L60.558386,57.6820077 C63.8546566,53.2178389 63.9491711,47.1622569 60.7938132,42.5980917 L61.0188539,42.3979849 L61.0188539,36.8053435 L60.7799646,36.6017866 L60.7799646,36.5776357 C55.9814044,32.2718884 49.3825185,32.6169003 44.6116556,33.7036874 C41.0359591,34.4746484 38.3452968,37.422 37.912367,41.0420885 C31.5454462,42.7153957 33.6712153,45.9309057 33.5708126,47.1763983 C33.075723,53.2348056 35.1010893,56.7987775 37.3030261,58.8619481 C38.2235999,59.7737659 39.2923302,60.5238234 40.4639824,61.080374 L39.0791165,63.7645658 L38.6705811,63.7645658 L37.5349911,66.9800758 L37.4795965,66.9800758 L36.2436037,67.7874034 C28.5645225,72.7555734 24.7180575,81.6223767 26.3833587,90.371876 C26.3833587,90.371876 33.3076881,103.389171 31.1472973,116.409917 C30.4271671,120.784666 30.7283754,123.461958 31.4485056,125.090414 C31.2440161,126.857368 30.7369613,128.576289 29.9493883,130.172438 C27.3285297,135.451118 27.3285297,140.957507 30.6625943,147.381626 L31.6146895,180.651114 C31.6146895,180.651114 32.8056742,196.252548 31.6146895,199.464608 C30.4237049,202.676668 32.0924683,218.050394 32.0924683,218.050394 L31.8535789,218.050394 L31.8535789,226.541134 L49.7183485,227 C49.7183485,227 53.8729461,225.095535 54.6311601,223.660286 L63.6016288,226.316877 C63.6016288,226.316877 73.4722602,224.678071 67.6973695,222.414793 C63.3869746,220.724235 62.3171657,218.316053 62.050579,217.198215 L76.1692865,178.125628 C76.1692865,178.125628 73.5484278,144.85614 64.0205507,133.384497 L63.0546067,126.618816 L63.186169,126.618816 L65.2115353,87.1184147 L65.3777192,87.1391154 L65.3292489,87.1391154 C70.5458788,87.9408343 75.8607371,87.8615229 81.0509386,86.9045074 C82.6037722,86.6380841 84.1280525,86.226863 85.6036851,85.6762654 L85.873734,85.5727618 L85.9048935,85.5727618 L85.9291286,85.5727618 C87.0366073,85.1396888 88.0837944,84.5668994 89.0450768,83.8684035 L95,75.1051038 L85.9325908,69.091548 L82.8374156,73.3455436 Z M45.4460373,207.724191 L49.9641622,177.225147 L49.9641622,161.606463 L58.0621653,177.89792 L49.3375104,213.199528 L48.8805047,213.075324 L46.868987,220.027311 C46.215914,219.511798 45.7166801,218.828187 45.4252643,218.050394 L45.4460373,207.724191 Z" id="Shape" fill="url(#linearGradient-10)"></path>
                    <rect id="Rectangle-path" fill="url(#linearGradient-3)" x="163" y="33" width="16" height="15"></rect>
                    <rect id="Rectangle-path" fill="#FF69B4" x="163" y="33" width="15" height="15"></rect>
                    <rect id="Rectangle-path" fill="#000000" opacity="0.1" x="84" y="39" width="16" height="15"></rect>
                    <rect id="Rectangle-path" fill="url(#linearGradient-5)" x="83" y="37" width="16" height="15"></rect>
                    <rect id="Rectangle-path" fill="#FF69B4" x="83" y="38" width="15" height="15"></rect>
                    <rect id="Rectangle-path" fill="url(#linearGradient-3)" x="279" y="23" width="16" height="15"></rect>
                    <rect id="Rectangle-path" fill="#FF69B4" x="279" y="23" width="15" height="15"></rect>
                    <rect id="Rectangle-path" fill="url(#linearGradient-5)" x="249" y="96" width="16" height="15"></rect>
                    <rect id="Rectangle-path" fill="#FF69B4" x="249" y="96" width="15" height="15"></rect>
                    <path d="M25,76 L27,88" id="Shape" fill="#333333"></path>
                    <path d="M91.8007698,52.8541882 L91.8007698,58.5762818 L85,68.5638093 L91.8007698,73 C91.8007698,73 94.825652,61.3258139 96.4528301,59.9493054 C96.4528301,59.9493054 99.0118109,58.116284 100.406038,55.6002355 C101.800266,53.0841871 101.101414,44.3825624 94.3597506,52.1676763 L94.3597506,52.7670674 L91.8007698,52.8541882 Z" id="Shape" fill="#FDA57D"></path>
                    <path d="M38.1056257,66.5928761 L40.8122581,61.0945391 C40.974264,60.7665433 41.2975161,60.5523161 41.6585179,60.5337016 L51.9465187,60.001261 C52.2858087,59.9841327 52.6106052,60.1423864 52.8096564,60.4218157 C53.0087076,60.7012449 53.0549921,61.063917 52.9326561,61.3856066 L50.2784778,68.3499302 C50.1167376,68.7728137 49.6990169,69.0361928 49.2538741,68.9959582 L38.9134191,68.0624122 C38.5830842,68.0321529 38.28881,67.8381847 38.127199,67.5441822 C37.9655879,67.2501797 37.9575133,66.8941155 38.1056257,66.5928761 Z" id="Shape" fill="#FDA57D"></path>
                    <polygon id="Shape" fill="#EDEEF9" points="38.754044 64 37 69 55 68.3720137 48.0855584 64.337884"></polygon>
                    <polygon id="Shape" fill="#EDEEF9" points="84 69.0330709 84.9483173 68 93 72.1385827 93 74"></polygon>
                    <path d="M32.0070881,120 C32.7216385,123.481844 32.2999627,127.098339 30.8029118,130.327598 C28.293922,135.517155 28.293922,140.933391 31.4969616,147.249471 L32.409637,179.966696 C32.409637,179.966696 33.5478786,195.30869 32.409637,198.468448 C31.2713954,201.628205 32.8642396,216.743521 32.8642396,216.743521 L45.6312848,216.743521 L45.6312848,206.591084 L49.9621552,176.583695 L49.9621552,161.238265 L57.7146909,177.25686 L48.7996219,214.260364 L60.4249552,219 L75,177.483539 C75,177.483539 72.4910101,144.766314 63.3746667,133.487355 L61.663834,121.191778 L32.0070881,120 Z" id="Shape" fill="#30BA67"></path>
                    <path d="M33,224.5265 L33,216 L46.049566,216 C46.049566,216 46.9659974,219.458301 52.9175752,220.159782 C58.8691529,220.861263 50.1717653,225 50.1717653,225 L33,224.5265 Z" id="Shape" fill="#333333"></path>
                    <path d="M47,220.031126 L49.2623815,212 L61.7783475,215.429174 C61.7783475,215.429174 61.7401785,218.926932 67.2642756,221.149037 C72.7883726,223.371142 63.3606266,225 63.3606266,225 L47,220.031126 Z" id="Shape" fill="#333333"></path>
                    <path d="M61.2278784,121.22939 L32,120 C32.361895,121.81217 32.4369049,123.673629 32.2220704,125.510936 C33.5579091,128.783387 36.4277417,127.887993 36.4277417,127.887993 L62,127.070768 L61.2278784,121.22939 Z" id="Shape" fill="#000000" opacity="0.1"></path>
                    <path d="M37.9642967,67 L36.7812927,67.7991379 C29.4671109,72.7394031 25.7729769,81.5239472 27.3658301,90.1888361 C27.3658301,90.1888361 33.9746939,103.085745 31.9243849,115.979195 C29.874076,128.872644 36.4829398,126.890367 36.4829398,126.890367 L62.5784113,126.091229 L64.514236,86.9646089 C64.514236,86.9646089 80.2402095,89.1959679 87.303541,83.7403816 L93,75.0605681 L84.3269504,69.1102775 L81.385052,73.3239135 C81.385052,73.3239135 72.1014198,71.3693123 67.0086051,69.3074674 C64.6292758,68.3399778 62.0970102,67.8000455 59.5289671,67.7126511 L37.9642967,67 Z" id="Shape" fill="#333333"></path>
                    <path d="M38.112524,130 C38.112524,130 36.438982,137.905074 46,151" id="Shape" fill="#000000" opacity="0.1"></path>
                    <path d="M65,86.4844208 C65,86.4844208 76.0682551,83 80.9125913,83 C85.7569275,83 84.9495382,84.9892031 84.9495382,84.9892031 C84.9495382,84.9892031 77.223173,88.2282889 65,86.4844208 Z" id="Shape" fill="#000000" opacity="0.1"></path>
                    <path d="M52.5584612,60.001561 L48.3364178,60.5589642 C48.2018507,60.5589642 48.0807403,60.7633454 48,61.049479 C48.9285131,62.9074897 50.0891545,64 51.364178,64 C51.8136538,63.9940044 52.2540697,63.8595832 52.6425656,63.6098178 L52.9789834,61.4508093 C53.0698162,60.7299012 52.8545088,59.9606848 52.5584612,60.001561 Z" id="Shape" fill="#000000" opacity="0.1"></path>
                    <circle id="Oval" fill="#FDA57D" cx="48.5" cy="50.5" r="13.5"></circle>
                    <path d="M62,37.4886238 L62,42.9400608 L61.3120995,43.543126 C60.7187718,44.0642079 60.4440709,44.8383624 60.5833108,45.5969783 C60.7225507,46.3555941 61.2565406,46.9941142 62,47.2909889 C62,47.2909889 60.8630038,55.9928453 59.4408676,59.2568932 C59.4408676,59.2568932 57.2310317,59.4885793 57.7335912,57.8940339 C59.5834376,52.0473677 55.8837447,53.1240265 55.0318887,54.2211282 C54.1800326,55.3182299 55.1744587,58.1631986 55.1744587,58.1631986 C55.1744587,58.1631986 57.8761612,62.933206 43.6512342,61.8361043 C43.6512342,61.8361043 34.2629962,59.9315085 35.2574223,47.8293183 C35.3572214,46.6163736 33.2650059,43.4783902 39.5345239,41.8463662 C39.9161026,38.3667079 42.5560988,35.4973917 46.1176961,34.6913552 C50.7939939,33.6249178 57.2809313,33.2876101 62,37.4886238 Z" id="Shape" fill="#000000" opacity="0.1"></path>
                    <path d="M61,37.4886238 L61,42.9400608 L60.3120995,43.543126 C59.7187718,44.0642079 59.4440709,44.8383624 59.5833108,45.5969783 C59.7225507,46.3555941 60.2565406,46.9941142 61,47.2909889 C61,47.2909889 59.8630038,55.9928453 58.4408676,59.2568932 C58.4408676,59.2568932 56.2310317,59.4885793 56.7335912,57.8940339 C58.5834376,52.0473677 54.8837447,53.1240265 54.0318887,54.2211282 C53.1800326,55.3182299 54.1744587,58.1631986 54.1744587,58.1631986 C54.1744587,58.1631986 56.8761612,62.933206 42.6512342,61.8361043 C42.6512342,61.8361043 33.2629962,59.9315085 34.2574223,47.8293183 C34.3572214,46.6163736 32.2650059,43.4783902 38.5345239,41.8463662 C38.9161026,38.3667079 41.5560988,35.4973917 45.1176961,34.6913552 C49.7975581,33.6249178 56.2809313,33.2876101 61,37.4886238 Z" id="Shape" fill="#72351C"></path>
                </g>
                <g id="undraw_login_jdch" transform="translate(166.000000, 40.000000)">
                    <path d="M8.94034499,40.8477249 L8.94034499,43 L18,37.2585959 L17.0479279,36.0562076 L16.6048251,36.317727 L9.59601732,26.0072474 L9.59601732,20.0253656 L6.92841896,20.2658432 L6.92841896,19.3099445 C-0.107334262,11.1757877 -0.834861085,20.2658432 0.620192561,22.8990736 C2.07524621,25.532304 4.73685668,27.4561253 4.73685668,27.4561253 C6.23382545,28.7096151 8.81459962,38.1784229 9.44632044,40.5531398 L8.94034499,40.8477249 Z" id="Shape" fill="url(#linearGradient-11)"></path>
                    <path d="M67.7749313,36.0048577 L66.5383522,35.1683956 L66.4844578,35.1683956 L65.361656,31.8404712 L64.9544532,31.8554081 L63.5591848,29.0741715 C64.7615497,28.4816365 65.850844,27.6839537 66.7778833,26.7171407 C68.9576159,24.5722128 70.9457236,20.8917794 70.4546849,14.6690987 C70.3528842,13.3815445 72.4817164,10.0476454 66.1101905,8.31497385 C65.7216969,4.61854961 63.0343815,1.57071019 59.4093094,0.715117937 C56.9470257,0.104812792 54.4041297,-0.116947856 51.8730637,0.0578976932 C46.9836362,0.473141393 42.6960304,4.05797909 42.6960304,8.95426991 C42.6960304,8.95426991 41.2199203,9.40834935 41.1390786,14.2389181 L41.3277093,14.2389181 C39.4832446,21.6702653 44.0222117,29.1873441 51.4688551,31.0338827 L51.552691,31.53576 C51.639521,31.5835579 51.7293451,31.625381 51.8191693,31.6672041 L52.7174107,34.0033233 L49.8160908,35.7419696 L43.9954863,35.9331609 C41.3122454,36.0254761 38.6665501,36.5908393 36.1807859,37.6030978 C30.85122,39.7390636 21.1472184,41.7883958 21.1472184,41.7883958 L18.0542737,37.3760581 L9,43.6017262 L14.9583349,52.6803277 C15.9104822,53.3992165 16.9521713,53.9916862 18.0572678,54.4428729 L18.0842151,54.4428729 L18.1171506,54.4428729 L18.386623,54.550418 C19.8599752,55.1201335 21.3851046,55.5463238 22.9407071,55.8230354 C26.5336728,56.5429903 31.9231214,57.0777286 38.6689146,56.065012 L38.6210084,56.0500751 L38.7886802,56.0291636 L40.8127175,96.9560606 L40.9444596,96.9560606 L39.977353,103.964418 C30.4410231,115.875042 27.8181581,150.358193 27.8181581,150.358193 L41.929531,190.839972 C41.6630527,191.996083 40.5911513,194.49352 36.2825865,196.244115 C30.5068941,198.589197 40.3785675,200.289007 40.3785675,200.289007 L49.3609819,197.537644 C50.1035281,199.031327 54.2743625,201 54.2743625,201 L72.1463729,200.525009 L72.1463729,191.724232 L71.9068419,191.724232 C71.9068419,191.724232 73.5745768,175.795604 72.3829099,172.467679 C71.1912429,169.139755 72.3829099,152.972137 72.3829099,152.972137 L73.3350458,118.497948 C76.6705156,111.842099 76.6705156,106.136232 74.0506448,100.666368 C73.2616262,99.0049912 72.7556706,97.2240179 72.5535757,95.3966562 C73.2721689,93.7087951 73.5745768,90.9365206 72.8529895,86.401701 C70.7091867,72.9167365 77.6196574,59.4138478 77.6196574,59.4138478 C79.2795,50.3535975 75.4175622,41.1706032 67.7749313,36.0048577 Z M57.1157996,193.773565 L55.1037388,186.571028 L54.6456356,186.699485 L45.9267054,150.119204 L54.0288432,133.240593 L54.0288432,149.408211 L58.55598,181.029467 L58.55598,191.724232 C58.2689723,192.52393 57.7715097,193.231804 57.1157996,193.773565 Z" id="Shape" fill="url(#linearGradient-12)"></path>
                    <path d="M10.1993336,22.8466019 L10.1993336,28.5794833 L17,38.5663722 L10.1993336,43 C10.1993336,43 7.17681519,31.3246803 5.54907554,29.9505849 C5.54907554,29.9505849 2.98949227,28.1184578 1.59471352,25.6007799 C0.199934772,23.083102 0.895830807,14.383492 7.642737,22.1670385 L7.642737,23.083102 L10.1993336,22.8466019 Z" id="Shape" fill="#FDA57D"></path>
                    <path d="M64.8945737,36.5955905 L62.187279,31.1055147 C62.025006,30.7770391 61.7008727,30.5625994 61.3389934,30.544307 L51.0572899,30.0013995 C50.7171041,29.9833249 50.3910574,30.1412596 50.1911651,30.4209444 C49.9912729,30.7006291 49.9447664,31.0639622 50.0676233,31.3861186 L52.7237802,38.3493647 C52.8854999,38.7724943 53.3037496,39.0361455 53.749544,38.9959736 L64.103442,38.0626607 C64.4302723,38.0267809 64.7191179,37.8310506 64.8768299,37.5385903 C65.034542,37.2461299 65.0411689,36.8939375 64.8945737,36.5955905 Z" id="Shape" fill="#FDA57D"></path>
                    <polygon id="Shape" fill="#EDEEF9" points="64.2488279 34 66 39 48 38.372434 54.9142666 34.3343109"></polygon>
                    <polygon id="Shape" fill="#EDEEF9" points="18 40.2055906 17.157605 39 10 43.8255185 10 46"></polygon>
                    <path d="M71.0106789,90 C71.0106789,90 69.7084086,95.2406938 72.2026883,100.535571 C74.6969679,105.830447 74.708888,111.354097 71.5202629,117.798856 L70.6173158,151.175543 C70.6173158,151.175543 69.4789468,166.828391 70.6173158,170.049265 C71.7556847,173.27014 70.1613722,188.694215 70.1613722,188.694215 L57.4009116,188.694215 L57.4009116,178.339254 L53.0709375,147.725896 L53.0709375,132.073049 L45.3228765,148.415224 L54.2063265,186.165678 L42.5842349,191 L28,148.647006 C28,148.647006 30.5061997,115.270319 39.6220916,103.762465 L41.332625,91.2161059 L71.0106789,90 Z" id="Shape" fill="#7A7478"></path>
                    <path d="M70,196.538229 L70,188 L56.9487667,188 C56.9487667,188 56.0325755,191.461771 50.0803269,192.152918 C44.1280783,192.844064 52.8408768,197 52.8408768,197 L70,196.538229 Z" id="Shape" fill="#333333"></path>
                    <path d="M57,191.653968 L54.7379839,183 L42.220899,186.711111 C42.220899,186.711111 42.2596423,190.479365 36.7342434,192.873016 C31.2088444,195.266667 40.6532831,197 40.6532831,197 L57,191.653968 Z" id="Shape" fill="#333333"></path>
                    <path d="M41.7976715,91.2214262 L72,90 C71.626832,91.8125324 71.5499977,93.6742334 71.7725271,95.5116859 C70.3894922,98.7851082 67.4262792,97.8873599 67.4262792,97.8873599 L41,97.0690043 L41.7976715,91.2214262 Z" id="Shape" fill="#000000" opacity="0.1"></path>
                    <path d="M65.0274164,37 L66.2195181,37.799484 C73.5331527,42.7392738 77.2270175,51.5234997 75.6341416,60.1880074 C75.6341416,60.1880074 69.0239375,73.0837732 71.0773327,85.9795389 C73.130728,98.8753047 66.5205238,96.889969 66.5205238,96.889969 L40.4254167,96.090485 L38.4882514,56.963323 C38.4882514,56.963323 22.7644294,59.1953396 15.6982463,53.7386385 L10,45.0602251 L18.6606192,39.1161063 L21.622992,43.3304865 C21.622992,43.3304865 30.903504,41.3748714 35.999739,39.3152343 C38.3751442,38.3465629 40.9035461,37.80424 43.4682564,37.7132943 L65.0274164,37 Z" id="Shape" fill="#F6B003"></path>
                    <path d="M64.8876247,100 C64.8876247,100 66.5601888,107.901575 57,121" id="Shape" fill="#000000" opacity="0.1"></path>
                    <path d="M39,57.4866836 C39,57.4866836 27.9304146,54 23.0863399,54 C18.2422651,54 19.0506163,55.9785433 19.0506163,55.9785433 C19.0506163,55.9785433 26.7751963,59.2286 39,57.4866836 Z" id="Shape" fill="#000000" opacity="0.1"></path>
                    <path d="M50.43512,30.0013728 L54.6722799,30.5593949 C54.8056881,30.5785271 54.9274956,30.7634716 55,31.0504544 C54.0690429,32.8967105 52.9031714,34 51.6386938,34 C51.186773,33.9937654 50.7440684,33.8586191 50.353915,33.6077902 L50.0290951,31.4522304 C49.9188883,30.7315846 50.1364016,29.9631084 50.43512,30.0013728 Z" id="Shape" fill="#000000" opacity="0.1"></path>
                    <circle id="Oval" fill="#FDA57D" cx="54.5" cy="20.5" r="13.5"></circle>
                    <path d="M43.0000104,12.9257843 L43.6889521,13.5291467 C44.2842358,14.0501068 44.5601578,14.8257925 44.4205798,15.5859346 C44.2810018,16.3460767 43.745256,16.9853911 43.0000104,17.281124 C43.0000104,17.281124 49.1239364,23.1390121 49.9690382,24.2197924 C50.8141399,25.3005727 49.8281879,28.16508 49.8281879,28.16508 C49.8281879,28.16508 47.1244745,32.927543 61.3503546,31.8379758 C61.3503546,31.8379758 70.7383331,29.9341622 69.7431952,17.8229787 C69.6421504,16.6103958 71.7334711,13.4676389 65.4748187,11.8362171 C65.0942961,8.35347839 62.453958,5.48130222 58.8915983,4.67494895 C56.4726504,4.0996712 53.974467,3.89015625 51.4877718,4.05401281 C46.6799622,4.4554367 42.9928575,8.30935634 43.0000104,12.9257843 Z" id="Shape" fill="#000000" opacity="0.1"></path>
                    <path d="M42.4749466,12.4343766 C42.4749466,12.4343766 41.0796471,12.8620356 41,17.4139681 L42.9852781,17.2792262 C42.9852781,17.2792262 47.5812115,29.4850837 47.0974291,27.8945436 C45.3274932,22.0362007 48.8673649,23.1317108 49.7021847,24.2213626 C50.5370044,25.3110144 49.5664896,28.1669565 49.5664896,28.1669565 C49.5664896,28.1669565 46.9646839,32.9210018 60.6669374,31.8401376 C60.6669374,31.8401376 69.7113096,29.9361761 68.7525944,17.8240521 C68.6552479,16.6113751 70.6700249,13.4683741 64.6404434,11.8368256 C64.2738481,8.35381646 61.7301481,5.48141725 58.2981732,4.67500136 C55.9677604,4.09967894 53.5610122,3.89014772 51.1653317,4.05401701 C46.5339995,4.44652599 42.4749466,7.82093152 42.4749466,12.4343766 Z" id="Shape" fill="#6E6662"></path>
                </g>
            </g>
        </g>
    </g>
</svg>