<?xml version="1.0" encoding="UTF-8"?>
<svg width="383px" height="240px" viewBox="0 0 383 240" version="1.1" xmlns="http://www.w3.org/2000/svg" xmlns:xlink="http://www.w3.org/1999/xlink">
    <!-- Generator: Sketch 50.2 (55047) - http://www.bohemiancoding.com/sketch -->
    <title>skills-image</title>
    <desc>Created with Sketch.</desc>
    <defs>
        <linearGradient x1="49.9834446%" y1="99.9971032%" x2="49.9834446%" y2="-0.000733345336%" id="linearGradient-1">
            <stop stop-color="#808080" stop-opacity="0.25" offset="0%"></stop>
            <stop stop-color="#808080" stop-opacity="0.12" offset="54%"></stop>
            <stop stop-color="#808080" stop-opacity="0.1" offset="100%"></stop>
        </linearGradient>
        <linearGradient x1="50.0138616%" y1="100.13861%" x2="50.0138616%" y2="-0.00862391885%" id="linearGradient-2">
            <stop stop-color="#808080" stop-opacity="0.25" offset="0%"></stop>
            <stop stop-color="#808080" stop-opacity="0.12" offset="54%"></stop>
            <stop stop-color="#808080" stop-opacity="0.1" offset="100%"></stop>
        </linearGradient>
    </defs>
    <g id="Page-1" stroke="none" stroke-width="1" fill="none" fill-rule="evenodd">
        <g id="Altcampus-Landing-Page" transform="translate(-112.000000, -1317.000000)" fill-rule="nonzero">
            <g id="Skills" transform="translate(-2.000000, 1178.000000)">
                <g id="skills-image" transform="translate(114.000000, 139.000000)">
                    <path d="M8.71276955,181 C9.00194107,181.41754 9.23113906,181.875208 9.39339424,182.359087 C15.070423,189.170325 18.090695,195.527217 12.6379631,195.689201 C7.556481,195.839333 1.46179622,205.119842 0,207.466637 C0.0482359139,207.647598 0.106334307,207.825664 0.17402336,208 C0.17402336,208 7.32058267,195.859087 13.1368301,195.689201 C18.9530775,195.519315 15.112962,188.301141 8.71276955,181 Z" id="Shape" fill="#000000" opacity="0.1"></path>
                    <path d="M40.8864455,143.292533 C53.2107295,158.97541 48.4235469,181.887294 40.592088,200.233082 C37.9699823,206.376769 35.0031685,212.877062 36.1108823,219.46263 C37.4626029,227.517256 44.6317575,233.416747 52.1920976,236.517662 C65.9416917,242.207841 82.4024733,240.85119 95.0327342,232.986495 C105.951074,226.187739 113.770913,215.132978 124.875163,208.644313 C143.466163,197.791111 167.115465,201.888195 187.294447,209.365276 C201.570786,214.656212 217.17948,221.540243 231.366737,216.008986 C241.347781,212.132843 248.249689,202.647919 252.010494,192.608708 C253.82699,187.759652 255.143852,182.530734 258.594807,178.654591 C260.655309,176.371542 263.343258,174.747438 266.100923,173.383035 C291.276236,160.897977 323.035862,167.56882 347.467535,153.73874 C363.970921,144.389482 374.536806,126.749152 379.22716,108.356851 C383.917515,89.9645497 383.359785,70.6768593 382.170735,51.7380218 C381.326394,38.2761752 379.812002,23.907311 371.217538,13.5153701 C362.127313,2.52650309 346.522492,-1.56282837 332.420444,0.526413012 C318.318395,2.61565439 305.529336,10.0966115 294.297274,18.8644482 C280.241703,29.8223061 267.208637,43.4702076 249.949991,47.9122681 C238.19893,50.9356601 225.835915,49.2805468 213.713033,48.7107537 C193.448843,47.7533462 173.180779,49.8735968 153.028909,52.1992829 C133.736873,54.4319416 114.297658,56.8894166 95.9274261,63.1687692 C82.9214721,67.6147059 72.4950193,75.6809607 60.2133397,81.3168734 C52.2075901,84.9914575 43.4775662,86.0070071 35.9017335,90.6855124 C26.5636289,96.4493379 18.0078956,106.476921 20.4092332,118.206132 C22.663392,129.373301 34.3408641,134.970453 40.8864455,143.292533 Z" id="Shape" fill="#30BA67" opacity="0.1"></path>
                    <ellipse id="Oval" fill="#30BA67" opacity="0.1" cx="198.5" cy="128.5" rx="166.5" ry="16.5"></ellipse>
                    <polygon id="Shape" fill="#FDC2CC" points="107 122.486922 108.786164 125.798793 110.702306 126.77666 112.48847 128 113 126.655936 111.721174 124.080483 109.809224 122"></polygon>
                    <path d="M107.530398,122 L106,122 L106,124.171908 L107.530398,127.618449 C107.530398,127.618449 109.572327,128 109.702306,128 C109.832285,128 111.48847,127.618449 111.48847,127.618449 L112,126.725367 C112,126.725367 106.381551,124.549266 107.530398,122 Z" id="Shape" fill="#E6E6F0"></path>
                    <path d="M106.721179,121 L106.031797,121.56055 L103,124.031394 L109.993889,133.250961 C109.993889,133.250961 113.941156,134.936298 115.749856,133.250961 C115.749856,133.250961 116.861762,132.144613 114.397037,131.230032 C114.397037,131.230032 112.477146,131.565624 112.477146,129.659018 C112.477146,127.752411 112.929321,125.731482 113.589052,125.281567 C113.589052,125.281567 111.895249,124.721017 111.44678,125.170932 C111.101682,125.549284 110.798488,125.963474 110.54243,126.406354 C110.54243,126.406354 106.495091,124.816901 106.721179,121 Z" id="Shape" fill="#B45181"></path>
                    <polygon id="Shape" fill="#F7DF1E" points="156 90 248 90 248 177 156 177"></polygon>
                    <path d="M182,161.658762 L189.081739,157.699042 C190.449562,159.937145 191.6908,161.830924 194.672585,161.830924 C197.5313,161.830924 199.331623,160.797954 199.331623,156.783011 L199.331623,129.46776 L208.027323,129.46776 L208.027323,156.893455 C208.027323,165.212441 202.75294,169 195.045308,169 C188.090154,169 184.053493,165.670456 182.003516,161.655514 M212.749654,160.794705 L219.827876,157.007146 C221.691492,159.820205 224.114192,161.879649 228.400507,161.879649 C232.004669,161.879649 234.300784,160.216502 234.300784,157.919929 C234.300784,155.16534 231.941377,154.19084 227.971524,152.582914 L225.798478,151.722105 C219.525478,149.256618 215.362232,146.157707 215.362232,139.61556 C215.362232,133.589898 220.330701,129 228.094593,129 C233.622147,129 237.588483,130.780088 240.454231,135.425207 L233.685439,139.443398 C232.194547,136.974663 230.580586,136.000162 228.094593,136.000162 C225.548824,136.000162 223.931347,137.491148 223.931347,139.443398 C223.931347,141.853662 225.545308,142.828163 229.272539,144.315901 L231.445585,145.176709 C238.829721,148.100211 243,151.085431 243,157.79974 C243,165.030534 236.850069,168.990255 228.583353,168.990255 C220.495965,168.990255 215.291907,165.417086 212.760203,160.78496" id="Shape" fill="#000000"></path>
                    <path d="M325.180181,190.584677 C325.180181,190.584677 321.154992,190.86327 318.670114,186.606975 C318.184459,185.749971 317.610496,184.944746 316.957351,184.204103 C316.155159,182.905515 315.738267,181.410714 315.754105,179.889767 C315.891283,176.736239 312.559822,159.463418 312.559822,159.463418 C312.559822,159.463418 312.975275,152.885507 309.643814,148.772378 C307.448969,146.063826 304.293879,138.325107 302.392986,133.325895 C302.520496,133.438125 302.673897,133.517832 302.839794,133.558056 L302.761407,133.128557 L302.839794,133.128557 L301.856033,127.792711 C300.423748,126.167302 299.216479,124.361287 298.265894,122.42204 L298.489298,122.375607 L301.436661,121.764248 C301.436661,121.764248 306.226126,115.043171 306.531837,111.738738 L306.923774,111.738738 L307.476404,111.738738 C311.909724,111.714801 316.340749,111.943473 320.747378,112.423615 C320.747378,112.404268 320.716023,112.319142 320.676829,112.183714 C320.490257,111.518753 320.346263,110.842859 320.245699,110.160039 L320.520054,110.160039 L323.263611,109.982049 C323.263611,109.982049 332.705363,99.565733 329.232805,97.6465307 C325.760247,95.7273284 322.150511,106.282941 322.150511,106.282941 L320.974701,106.491886 L320.657232,106.549927 C320.688587,106.503495 320.719942,106.460932 320.755216,106.418369 C320.790491,106.375806 305.344269,105.737361 302.965214,102.030515 C302.965214,102.030515 296.161194,96.6830602 295.882919,93.1309881 C295.78085,91.6286279 294.836969,90.3085236 293.437235,89.7104743 C292.596616,89.3143436 291.665634,89.1422619 290.736792,89.211327 L287.550347,89.4280111 L287.773751,89.814947 L287.683606,89.814947 C287.483692,89.3627374 287.316056,88.8972788 287.181927,88.4219776 L287.248556,88.4219776 C287.22504,88.3252436 287.205443,88.2285096 287.185846,88.1317757 C289.15878,87.6724369 290.859258,86.4440215 291.89967,84.7265366 C292.940082,83.0090516 293.231765,80.9488597 292.708233,79.0155647 C293.019984,79.0550633 293.336087,79.0459232 293.644961,78.9884792 C294.820771,78.7524482 295.647757,77.5761629 295.679112,76.3998777 C295.679112,76.3224905 295.679112,76.2451033 295.679112,76.1715854 C295.679112,76.1715854 295.679112,76.1406306 295.679112,76.1251531 C295.65534,74.9281295 295.086694,73.8053485 294.130963,73.0683591 C293.496026,72.5459956 292.735669,72.1745371 292.17128,71.5941332 C291.485391,70.9015178 291.109132,69.9728715 290.576098,69.1564367 C289.683224,67.8059272 288.358934,66.788611 286.813506,66.2660251 C285.665132,65.8790892 284.25416,65.8403956 283.372303,66.6529611 C282.917657,67.0747213 282.655059,67.6860801 282.145541,68.0420611 C281.41262,68.5605553 280.417101,68.4057809 279.519566,68.5102536 C277.869053,68.7609136 276.453619,69.8071304 275.745217,71.3000618 C275.30521,72.2206001 275.092965,73.2311509 275.125957,74.2485138 C275.116259,74.9464757 275.200611,75.6426119 275.376796,76.3186211 C275.549248,76.9918897 275.804007,77.6419421 275.992137,78.3152106 C276.384073,79.70818 276.474219,81.1746673 276.924946,82.5482899 C277.227774,83.5678034 277.832423,84.4746583 278.661225,85.1523688 L278.527967,85.7172953 C278.441741,85.7172953 276.27825,86.1932266 274.784972,89.416403 C273.609162,91.9585722 269.607489,94.5819979 267.847694,95.6422025 C267.184722,96.0427184 266.71292,96.6897938 266.538626,97.4375853 C266.36961,98.1853251 266.294577,98.9507781 266.315222,99.716638 C266.283867,101.368855 266.632691,103.655646 267.977033,106.553796 C271.030219,113.131707 273.2525,116.010511 273.2525,116.010511 C273.2525,116.010511 273.421033,118.026447 273.432791,120.150726 C273.432791,121.733294 273.31521,123.308123 272.974225,124.097472 C272.684192,124.763002 272.582288,126.461651 272.605805,128.404069 C272.605805,132.126393 272.974225,136.982439 272.974225,136.982439 C272.974225,136.982439 274.036373,137.183646 275.678587,137.419677 L276.701542,155.187776 C276.830139,157.339522 276.130134,159.459736 274.741859,161.123373 C274.024294,161.998368 273.195739,162.778638 272.276578,163.444989 C269.360569,165.499619 263.1131,187.160293 263.1131,187.160293 C263.1131,187.160293 263.418811,187.160293 263.920489,187.218334 L262,192.507748 C262,192.507748 269.674119,198.311787 274.342084,196.72535 C274.847699,196.562696 275.378409,196.489345 275.90983,196.508666 C276.830881,196.508666 278.802322,195.788965 277.7049,194.840972 C275.585769,192.914307 273.587132,190.862348 271.720028,188.696429 C271.870206,188.768956 272.014363,188.853052 272.151158,188.947937 L272.151158,188.905374 L272.217787,188.947937 C272.217787,188.947937 272.217787,188.735123 272.268739,188.38688 L272.20211,188.363664 C272.343207,186.93974 272.790015,183.333497 273.675791,182.915606 C274.784972,182.366157 282.980366,166.327662 282.980366,166.327662 L291.171841,145.491161 C291.171841,145.491161 297.697586,156.596223 303.251328,158.511556 L303.251328,163.154787 C303.251328,163.154787 306.304514,176.863928 307.417614,178.369109 C308.530714,179.874289 307.417614,185.906621 307.417614,185.906621 C307.637194,186.154775 307.888886,186.373334 308.166213,186.556673 L307.276517,191.524931 C307.276517,191.524931 313.665083,191.250206 324.494292,194.539162 C324.486453,194.558509 328.652739,192.778603 325.180181,190.584677 Z M299.633753,118.893184 L298.281571,119.225949 L298.015055,119.291728 C297.987619,119.125345 297.968022,119.028611 297.968022,119.028611 C297.657772,119.166855 297.324173,119.246894 296.984261,119.264642 C296.504981,117.765824 296.228234,116.211096 296.161194,114.640758 C295.706245,112.761322 295.42939,110.844178 295.334208,108.914106 C295.334208,107.915811 295.502741,107.045205 295.882919,106.553796 L296.333647,106.58862 L296.647196,106.882692 L296.670712,106.902039 L296.831406,107.045205 L296.999939,107.192241 L297.027374,107.215457 L297.207665,107.3741 L297.23902,107.401186 L297.42323,107.55596 L297.630957,107.726212 L297.677989,107.764906 L297.897474,107.939027 L298.113039,108.109279 L298.16399,108.147972 L298.403072,108.325963 L298.454024,108.360787 L298.681347,108.52717 L298.72054,108.554255 L298.979219,108.736115 L299.041928,108.778678 L299.316284,108.964407 L299.3398,108.964407 L299.606317,109.138528 L299.669027,109.181091 L299.955141,109.362951 L300.017851,109.401645 L300.284368,109.564158 L300.335319,109.595113 L300.64103,109.773103 L300.715498,109.815666 L301.032966,109.989787 L301.056483,109.989787 L301.366113,110.152301 L301.44058,110.190994 L301.769807,110.353507 L301.836436,110.384462 L302.142147,110.523759 L302.200937,110.550845 L302.545842,110.69788 L302.628148,110.732705 L302.984811,110.875871 C300.770369,113.282612 299.633753,118.893184 299.633753,118.893184 Z" id="Shape" fill="url(#linearGradient-1)"></path>
                    <path d="M265.470632,182 L263,188.797999 C263,188.797999 269.768855,193.915969 274.168611,192.855289 C274.831477,192.692591 275.50694,192.584666 276.187986,192.532634 C277.098021,192.465878 278.666139,191.809443 277.692176,190.9787 C274.570981,188.286202 270.408136,183.283201 270.408136,183.283201 L265.470632,182 Z" id="Shape" fill="#4F4D59"></path>
                    <path d="M308.294161,182.551079 L307,189.152226 C307,189.152226 313.620609,188.894018 324.847765,192 C324.847765,192 329.167182,190.316034 325.567667,188.257853 C325.567667,188.257853 321.406379,188.516061 318.805574,184.515706 C316.204769,180.515351 314.644286,181.020541 314.644286,181.020541 L308.294161,182.551079 Z" id="Shape" fill="#4F4D59"></path>
                    <path d="M276.186663,133.835921 L277.37252,154.747369 C277.502426,156.975592 276.753177,159.167034 275.281458,160.863422 C274.616423,161.64234 273.858604,162.339475 273.024376,162.939764 C270.154601,164.961568 264,186.246991 264,186.246991 C264,186.246991 270.972842,186.636549 272.886026,188 C272.886026,188 273.281312,182.612419 274.388112,182.070934 C275.494913,181.529449 283.546885,165.767952 283.546885,165.767952 L291.614669,145.288912 C291.614669,145.288912 298.038065,156.196523 303.508821,158.089773 L303.508821,162.670969 C303.508821,162.670969 306.516946,176.145764 307.611888,177.626083 C308.70683,179.106402 307.611888,185.027676 307.611888,185.027676 C307.611888,185.027676 310.774175,188.923251 318,184.758881 C318,184.758881 315.675719,182.199488 315.814069,179.09861 C315.952419,175.997732 312.651782,159.024711 312.651782,159.024711 C312.651782,159.024711 313.047068,152.558056 309.782007,148.506657 C306.516946,144.455259 301.089671,128.978138 301.089671,128.978138 L297.32655,121 L276.186663,133.835921 Z" id="Shape" fill="#C48C96"></path>
                    <g id="Group" opacity="0.1" transform="translate(264.000000, 121.000000)" fill="#000000">
                        <path d="M1.37032258,65.036474 C1.37032258,65.036474 7.39354839,43.8753179 10.2077419,41.8653179 C11.070988,41.2323028 11.8512957,40.4932557 12.5303226,39.6655491 C13.9042008,38.0019282 14.5959233,35.8787014 14.4658065,33.7246243 L13.2851613,12.9313873 L33.0270968,0.755202312 L32.76,0.178150289 L12.0812903,12.9352601 L13.2619355,33.7284971 C13.3920523,35.8825743 12.7003299,38.005801 11.3264516,39.669422 C10.6474248,40.4971286 9.86711706,41.2361757 9.00387097,41.8691908 C6.19741935,43.8753179 0.166451613,65.036474 0.166451613,65.036474 C0.166451613,65.036474 6.99483871,65.4237572 8.8683871,66.7792486 C8.8683871,66.7792486 8.8683871,66.5701156 8.91870968,66.2331792 C6.28258065,65.3269364 1.37032258,65.036474 1.37032258,65.036474 Z" id="Shape"></path>
                        <path d="M44.0787097,63.8320231 C44.0787097,63.8320231 45.1509677,57.9375723 44.0787097,56.4736416 C43.0064516,55.009711 40.0606452,41.6058382 40.0606452,41.6058382 L40.0606452,37.0436416 C34.7070968,35.1691908 28.4129032,24.3175145 28.4129032,24.3175145 L27.9483871,25.5335838 C29.763871,28.4149711 34.6064516,35.5642197 38.8606452,37.0513873 L38.8606452,41.6058382 C38.8606452,41.6058382 41.8064516,55.0019653 42.8787097,56.4736416 C43.9509677,57.9453179 42.8787097,63.8320231 42.8787097,63.8320231 C42.8787097,63.8320231 44.3729032,65.7142197 47.6709677,65.4586127 C45.2051613,65.2533526 44.0787097,63.8320231 44.0787097,63.8320231 Z" id="Shape"></path>
                    </g>
                    <path d="M321.818534,108.765799 L319.31826,108.918539 L318,109 L318,106.063996 L319.730676,105.775487 L320.802223,105.595593 C320.802223,105.595593 324.116283,96.5567752 327.297782,98.1995796 C330.47928,99.842384 321.818534,108.765799 321.818534,108.765799 Z" id="Shape" fill="#714B4F"></path>
                    <path d="M280.022763,82 C280.022763,82 278.485565,88.2182498 278.014158,92.0700402 C277.542751,95.9218306 289,92.8181003 289,92.8181003 C289,92.8181003 284.627526,87.2220351 287.110954,84.2369875 L280.022763,82 Z" id="Shape" fill="#714B4F"></path>
                    <path d="M294.992174,109.489684 L295.277174,112 L290.849348,111.736359 L286.421522,108.16766 L281.993696,96.6668195 L279.143696,92.5670182 L277,90.0567018 L277.85913,87 C277.85913,87 278.251522,87.3171328 278.912391,87.7832798 C281.08913,89.3116308 286.190217,92.5249885 289.92,91.638545 C290.092418,91.59832 290.262071,91.5485591 290.428043,91.4895308 L296,100.342503 L294.992174,109.489684 Z" id="Shape" fill="#E6E6F0"></path>
                    <path d="M278.897944,87.0038056 C278.897944,87.0038056 276.736118,87.3843649 275.246687,90.5582298 C274.10518,92.9861984 270.242822,95.5055012 268.518835,96.5215946 C267.854393,96.9165135 267.3821,97.5560717 267.209229,98.2950011 C266.861304,99.7944049 266.728389,102.591516 268.620476,106.614028 C271.595429,112.931313 273.757255,115.694174 273.757255,115.694174 C273.757255,115.694174 274.296734,122.011459 273.487516,123.853366 C272.678297,125.695273 273.487516,135.829569 273.487516,135.829569 C273.487516,135.829569 287.682072,138.463039 292.416197,135.829569 C297.150322,133.196098 296.474018,123.061803 296.474018,123.061803 C296.474018,123.061803 300.934494,132.275144 302.556841,132.53773 L301.610798,127.403985 C301.610798,127.403985 296.337194,121.874458 296.067454,114.769415 C296.067454,114.769415 294.445108,108.318934 295.797715,106.610223 C295.797715,106.610223 318.647393,108.45213 320,106.872809 C320,106.872809 304.992316,106.214441 302.693665,102.660017 C302.693665,102.660017 296.067454,97.5262713 295.797715,94.1050428 C295.717796,92.7992257 294.950506,91.6262824 293.768804,91.0034842 C292.849196,90.4942011 291.79391,90.2648814 290.73912,90.3451166 L287.685981,90.5506186 C287.685981,90.5506186 292.959585,99.6307644 292.689846,100.825721 C292.420106,102.020677 292.959585,111.618384 292.959585,111.618384 C292.959585,111.618384 286.857216,98.8506178 284.171548,97.4044923 C281.48588,95.9583668 278.354556,90.0064188 278.354556,90.0064188 L278.894035,87" id="Shape" fill="#000000" opacity="0.1"></path>
                    <path d="M294.992174,109.489684 L295.277174,112 L290.849348,111.736359 L286.421522,108.16766 L281.993696,96.6668195 L279.143696,92.5670182 L277,90.0567018 L277.85913,87 C277.85913,87 278.251522,87.3171328 278.912391,87.7832798 L278.71413,88.8263793 C278.71413,88.8263793 282.018478,94.7945896 284.856087,96.2503439 C287.693696,97.7060981 294.141304,110.52132 294.141304,110.52132 C294.141304,110.52132 293.571304,100.873605 293.856304,99.6853125 C294.050435,98.8791074 291.547391,94.4239645 289.92,91.638545 C290.092418,91.59832 290.262071,91.5485591 290.428043,91.4895308 L296,100.342503 L294.992174,109.489684 Z" id="Shape" fill="#000000" opacity="0.1"></path>
                    <path d="M320.285106,109.898947 L318,110 L318,106.357895 L321,106 C319.953191,106.913684 319.991489,108.530526 320.285106,109.898947 Z" id="Shape" fill="#000000" opacity="0.1"></path>
                    <path d="M275.246687,88.5546948 C274.10518,90.9828482 270.242822,93.5023427 268.518835,94.5185135 C267.854393,94.9134625 267.3821,95.5530693 267.209229,96.292055 C266.861304,97.7915729 266.728389,100.588897 268.620476,104.611715 C271.595429,110.929481 273.757255,113.692552 273.757255,113.692552 C273.757255,113.692552 274.296734,120.010318 273.487516,121.852366 C272.678297,123.694413 273.487516,133.82948 273.487516,133.82948 C273.487516,133.82948 287.682072,136.463151 292.416197,133.82948 C297.150322,131.195808 296.474018,121.060742 296.474018,121.060742 C296.474018,121.060742 300.930585,130.259561 302.556841,130.541197 L301.610798,125.40706 C301.610798,125.40706 296.337194,119.877112 296.067454,112.771529 C296.067454,112.771529 294.445108,106.320557 295.797715,104.611715 C295.797715,104.611715 301.071319,110.141663 307.021226,110.008458 C311.356931,109.983051 315.69049,110.202894 320,110.666875 C320,110.666875 318.647393,106.453763 320,104.874321 C320,104.874321 304.992316,104.215904 302.693665,100.661209 C302.693665,100.661209 296.067454,95.5270725 295.797715,92.1055837 C295.717796,90.7996671 294.950506,89.6266345 293.768804,89.003789 C292.849196,88.4944671 291.79391,88.2651299 290.73912,88.3453712 L287.685981,88.5508889 C287.685981,88.5508889 292.959585,97.6317258 292.689846,98.8267731 C292.420106,100.02182 292.959585,109.620257 292.959585,109.620257 C292.959585,109.620257 286.857216,96.843908 284.171548,95.3976725 C281.48588,93.9514369 278.354556,88.0142594 278.354556,88.0142594 L278.894035,85.0076118 C278.897944,85 276.736118,85.3805883 275.246687,88.5546948 Z" id="Shape" fill="#C48C96"></path>
                    <path d="M274.78051,100 C274.78051,100 278.03214,110.976805 279.928272,112.337145 C281.824403,113.697484 293.342226,120.608951 296.730973,118.982032 C296.730973,118.982032 297.545839,123.05129 296.33921,124 C296.33921,124 283.704864,123.506044 283.603005,123.459 C283.603005,123.459 275.336813,122.373081 273.981314,118.307743 C272.625815,114.242404 271,107.330938 271,107.330938 L274.78051,100 Z" id="Shape" fill="#000000" opacity="0.1"></path>
                    <ellipse id="Oval" fill="#BA7855" cx="293.5" cy="113" rx="1" ry="1"></ellipse>
                    <ellipse id="Oval" fill="#BA7855" cx="293.5" cy="116" rx="1" ry="1"></ellipse>
                    <path d="M300.085409,120.980321 L297.242994,121.550899 L295,122 L296.202709,118.815803 L297.041898,118.617021 L298.345155,118.307804 C298.345155,118.307804 300.216895,109.395735 303.964242,110.032574 C307.71159,110.669414 300.085409,120.980321 300.085409,120.980321 Z" id="Shape" fill="#714B4F"></path>
                    <path d="M297.977195,122.468988 L295,123 L296.596392,119.235038 L297.710274,119 C297.957147,120.143687 298.046719,121.307797 297.977195,122.468988 Z" id="Shape" fill="#000000" opacity="0.1"></path>
                    <path d="M274.78051,100 C274.78051,100 278.03214,110.976805 279.928272,112.337145 C281.824403,113.697484 293.342226,120.608951 296.730973,118.982032 C296.730973,118.982032 297.545839,123.05129 296.33921,124 C296.33921,124 283.704864,123.506044 283.603005,123.459 C283.603005,123.459 275.336813,122.373081 273.981314,118.307743 C272.625815,114.242404 271,107.330938 271,107.330938 L274.78051,100 Z" id="Shape" fill="#C48C96"></path>
                    <path d="M280.585976,82 C280.585976,82 280.335864,82.9791054 280,84.4026018 C281.406399,87.0970551 284.424445,88.5037361 287.364002,87.8348901 C287.067441,86.5522982 287.131755,85.2552545 288,84.2508585 L280.585976,82 Z" id="Shape" fill="#000000" opacity="0.1"></path>
                    <circle id="Oval" fill="#714B4F" cx="285" cy="80" r="7"></circle>
                    <path d="M293.223412,79.9985525 C293.777616,80.1529201 294.358217,80.1891082 294.927382,80.1047588 C296.138631,79.7778442 296.984956,78.6886426 297,77.4373462 C296.978169,76.2039231 296.39857,75.0464015 295.423008,74.2879203 C294.775827,73.748719 294.001667,73.3688271 293.407735,72.7683529 C292.707305,72.0535027 292.322274,71.0976458 291.769302,70.256165 C290.858504,68.8647135 289.507653,67.8166116 287.931273,67.2783031 C286.759793,66.8698173 285.322068,66.8371384 284.42093,67.686789 C283.958073,68.1238688 283.687731,68.7488522 283.171625,69.1205743 C282.422042,69.6516059 281.406213,69.4963813 280.492787,69.6025876 C278.812189,69.8573911 277.368828,70.9292894 276.642469,72.4619886 C275.943502,74.0010923 275.810093,75.7364456 276.265629,77.3638188 C276.441761,78.0582447 276.70391,78.7281615 276.89233,79.406248 C277.301938,80.8441182 277.38386,82.351431 277.842621,83.7688769 C278.301383,85.1863228 279.247578,86.5751747 280.681207,87 C280.56818,85.4090261 280.883534,83.8168334 281.594633,82.3881947 C281.71181,82.0757828 281.942951,81.8190139 282.241814,81.6692596 C282.497093,81.6038945 282.764791,81.6038945 283.02007,81.6692596 C284.816695,81.9343018 286.649695,81.5643712 288.201614,80.6235359 C288.746393,80.2967472 289.594283,79.1693262 290.17183,79.0590351 C290.917317,78.9324044 292.445156,79.8269885 293.223412,79.9985525 Z" id="Shape" fill="#000000" opacity="0.1"></path>
                    <path d="M293.223412,79.9985525 C293.777616,80.1529201 294.358217,80.1891082 294.927382,80.1047588 C296.138631,79.7778442 296.984956,78.6886426 297,77.4373462 C296.978169,76.2039231 296.39857,75.0464015 295.423008,74.2879203 C294.775827,73.748719 294.001667,73.3688271 293.407735,72.7683529 C292.707305,72.0535027 292.322274,71.0976458 291.769302,70.256165 C290.858504,68.8647135 289.507653,67.8166116 287.931273,67.2783031 C286.759793,66.8698173 285.322068,66.8371384 284.42093,67.686789 C283.958073,68.1238688 283.687731,68.7488522 283.171625,69.1205743 C282.422042,69.6516059 281.406213,69.4963813 280.492787,69.6025876 C278.812189,69.8573911 277.368828,70.9292894 276.642469,72.4619886 C275.943502,74.0010923 275.810093,75.7364456 276.265629,77.3638188 C276.441761,78.0582447 276.70391,78.7281615 276.89233,79.406248 C277.301938,80.8441182 277.38386,82.351431 277.842621,83.7688769 C278.301383,85.1863228 279.247578,86.5751747 280.681207,87 C280.571452,85.4096498 280.889623,83.8189259 281.602825,82.3922796 C281.720002,82.0798677 281.951144,81.8230987 282.250006,81.6733445 C282.505285,81.6079794 282.772984,81.6079794 283.028262,81.6733445 C284.824887,81.9383867 286.657887,81.5684561 288.209807,80.6276207 C288.754586,80.300832 289.602475,79.1734111 290.180022,79.0631199 C290.917317,78.9324044 292.445156,79.8269885 293.223412,79.9985525 Z" id="Shape" fill="#503F43"></path>
                    <path d="M125.380316,103.646873 C124.618574,101.433072 123.520884,98.6066959 122.645857,97.963104 C122.593142,97.9212948 122.535409,97.8861331 122.473977,97.8584234 L122.364598,97.8584234 L122.364598,95.1250964 L120.309847,95.4507694 C119.980084,94.4628319 119.730581,93.4502663 119.563731,92.422786 C119.968575,92.8247395 120.577278,92.9455666 121.106747,92.7290737 C121.07159,92.6747948 121.044245,92.6166389 121.012994,92.5584831 L121.106747,92.5197125 C120.783317,91.9532787 120.612451,91.313667 120.610638,90.662601 C120.627686,90.0685579 120.723567,89.4793378 120.895803,88.9101701 C121.263002,87.6501257 121.884115,86.4714997 122.231782,85.2075783 C122.453924,84.391423 122.559127,83.5482801 122.544291,82.7029978 C122.554825,81.2708734 122.225629,79.8563887 121.583324,78.5739295 C121.423959,78.2047341 121.174205,77.8808918 120.856739,77.631804 C120.567704,77.4728755 120.270405,77.3292238 119.966087,77.2014504 C119.456714,76.8608423 119.017801,76.4265388 118.673078,75.9220208 C117.213838,74.158671 115.260243,72.8646973 113.059624,72.2039207 C112.486666,71.9927683 111.86572,71.944432 111.2666,72.0643466 C109.887651,72.4520525 109.383729,74.1308193 108.266507,75.0186659 C107.278196,75.7940778 105.922685,75.8832502 104.688272,76.1468902 C103.42103,76.3608287 102.254578,76.9675017 101.356138,77.8799358 C100.771982,78.5427017 100.453615,79.3954288 100.461579,80.2759586 C100.393184,81.1114508 100.767546,81.9221105 101.449891,82.4160954 C102.223092,82.9206961 103.183099,83.0557951 104.067159,82.7844161 C103.377593,85.1484265 103.712689,87.6907599 104.991749,89.7991721 C106.270809,91.9075844 108.37792,93.391003 110.805648,93.8921915 L111.047843,94.3186681 C111.786633,95.6861832 112.347139,97.1414231 112.715863,98.6493435 C110.82518,99.7155349 108.75871,100.711939 107.512578,100.804989 C107.463131,101.288499 107.37297,101.76705 107.243038,102.235624 C106.951891,103.412314 106.391854,104.506738 105.606269,105.434198 C103.910904,107.326203 96.2817629,121.632552 96.2817629,121.632552 C96.2817629,121.632552 96.0395679,122.20248 95.6489309,123.183376 C90.9105036,123.761058 83.1797965,124.594626 81.0195737,124.164272 L72.5427498,116.169775 C72.5427498,116.169775 69.8082906,118.244002 70.0426728,120.764091 L68.5152819,119.321825 C68.5152819,119.321825 60.4603461,125.420439 73.1794882,129.402179 L92.5316473,131.631489 C90.6878404,137.152421 88.9690375,143.576709 89.5003038,147.073817 L89.660465,147.073817 C90.0306093,147.073179 90.4001712,147.044666 90.7659679,146.988521 L90.7308105,147.608851 L88.8674718,180.73057 C88.8674718,180.73057 88.4416775,186.829185 94.1645101,189.566389 C94.1645101,189.566389 101.16082,209.971353 98.402922,212.285957 C98.402922,212.285957 98.7310571,212.456548 99.2818554,212.696925 L93.5277717,217.737103 C93.5277717,217.737103 89.2893598,218.787786 86.9572567,218.578425 C86.1087414,218.463554 85.308531,218.999143 85.0978244,219.822961 C85.0978244,219.865608 85.0978244,219.908256 85.0743862,219.954781 L85.0743862,220.00906 C85.0743862,220.051707 85.0743862,220.098232 85.0743862,220.144757 C85.0743862,220.191281 85.0743862,220.17965 85.0743862,220.195159 C85.0743862,220.210667 85.0743862,220.2727 85.0743862,220.31147 L85.0743862,220.361872 C85.0743862,220.408397 85.0743862,220.451044 85.1017307,220.497569 L85.1017307,220.547971 C85.114752,220.59708 85.1303775,220.644897 85.1486072,220.691422 L85.1486072,220.737947 C85.168139,220.784472 85.1915773,220.830996 85.2150155,220.877521 L85.2150155,220.908537 C85.2423601,220.955062 85.2697047,221.001587 85.3009556,221.048112 L85.3283002,221.086882 C85.3621554,221.135992 85.399917,221.185101 85.441585,221.23421 L85.4728359,221.272981 C85.515806,221.323383 85.5626825,221.369908 85.6134653,221.420309 L85.6369035,221.420309 L85.7931583,221.552129 L85.8283156,221.579269 L86.0197278,221.714966 L86.0666042,221.745982 L86.2892674,221.873925 L86.3244247,221.873925 L86.5627133,221.990237 L86.5978706,221.990237 L86.8752229,222.102672 L86.9338185,222.125934 L87.2424217,222.226738 L87.2932046,222.226738 L87.625246,222.312033 L87.6525906,222.312033 L88.0432277,222.385697 L88.1174487,222.385697 L88.5080858,222.443853 L88.5823068,222.443853 L89.0315394,222.486501 C89.90266,222.552411 91.0784775,222.575673 92.4378944,222.571796 C92.4378944,222.571796 92.4378944,222.60669 92.4378944,222.622198 C92.4378944,222.637706 92.4378944,222.699739 92.4378944,222.73851 L92.4378944,222.788911 C92.4378944,222.835436 92.4378944,222.878084 92.465239,222.924608 L92.465239,222.97501 C92.4782602,223.02412 92.4938857,223.071937 92.5121154,223.118461 L92.5121154,223.164986 C92.5316473,223.211511 92.5550855,223.258036 92.5785237,223.30456 L92.5785237,223.335577 C92.6058683,223.382101 92.6332129,223.428626 92.6644639,223.475151 L92.6918085,223.513921 C92.7256637,223.563031 92.7634253,223.61214 92.8050932,223.66125 L92.8363442,223.70002 C92.8793143,223.750422 92.9261907,223.796947 92.9769735,223.847349 L92.9965054,223.847349 L93.1527602,223.979169 L93.1879175,224.006308 L93.3793297,224.142005 L93.4262061,224.173022 L93.6449629,224.300965 L93.6801202,224.300965 L93.9184088,224.417276 L93.9535661,224.417276 L94.2309184,224.529711 L94.289514,224.552973 L94.5981172,224.653777 L94.6489001,224.653777 L94.9809415,224.739072 L95.0082861,224.739072 L95.3989232,224.812736 L95.4731442,224.812736 L95.8637813,224.870892 L95.9380023,224.870892 L96.3872349,224.91354 C101.899124,225.336139 119.48951,224.072218 119.48951,224.072218 L119.48951,224.021816 L119.48951,223.959783 C119.665296,223.145601 120.509072,218.411711 117.50898,214.910726 C117.598826,214.817677 117.684766,214.720751 117.7668,214.619947 C117.7668,214.619947 115.422978,210.622699 116.708174,209.362654 C117.99337,208.10261 110.500951,186.418216 110.500951,186.418216 C110.500951,186.418216 106.473483,180.106363 108.805586,172.953189 C111.13769,165.800014 108.594642,158.018755 108.594642,158.018755 C108.594642,158.018755 114.16122,156.382636 114.262786,149.586151 C114.262786,149.380667 114.262786,149.167429 114.262786,148.95419 C114.379184,148.971054 114.496736,148.978832 114.614359,148.977453 C114.692387,148.982985 114.770714,148.982985 114.848741,148.977453 C114.848741,148.977453 113.790115,145.189566 115.059685,142.456239 C116.329256,139.722912 119.087153,142.246877 121.630201,131.096454 C123.470101,123.028294 125.087338,113.75049 125.845174,109.233716 C126.156465,107.36187 125.996777,105.442679 125.380316,103.646873 Z M77.0116376,127.296936 L75.0779842,125.474718 C75.718629,125.738358 76.4295884,125.994244 77.2225816,126.25013 L84.5079624,127.099206 C81.2578623,127.389986 78.2226124,127.552822 77.0116376,127.308567 L77.0116376,127.296936 Z" id="Shape" fill="url(#linearGradient-2)"></path>
                    <path d="M95.5608971,127.099631 C95.5608971,127.099631 80.7531846,129.066421 77.6666369,128.476015 L69.4409872,121 C69.4409872,121 61.6243052,126.704797 73.9666378,130.442804 L97,133 L95.5608971,127.099631 Z" id="Shape" fill="#FDC2CC"></path>
                    <path d="M95.5608971,127.099631 C95.5608971,127.099631 80.7531846,129.066421 77.6666369,128.476015 L69.4409872,121 C69.4409872,121 61.6243052,126.704797 73.9666378,130.442804 L97,133 L95.5608971,127.099631 Z" id="Shape" fill="#000000" opacity="0.05"></path>
                    <path d="M100.658665,210 L93.3436872,216.26644 C93.3436872,216.26644 89.1648202,217.279236 86.8676194,217.074401 C84.5704186,216.869566 83.5237418,220.51108 88.9570529,220.916957 C94.3903641,221.322834 111.733054,220.108996 111.733054,220.108996 C111.733054,220.108996 113.403033,213.637721 108.389176,210 L100.658665,210 Z" id="Shape" fill="#47465A"></path>
                    <path d="M100.658665,210 L93.3436872,216.26644 C93.3436872,216.26644 89.1648202,217.279236 86.8676194,217.074401 C84.5704186,216.869566 83.5237418,220.51108 88.9570529,220.916957 C94.3903641,221.322834 111.733054,220.108996 111.733054,220.108996 C111.733054,220.108996 113.403033,213.637721 108.389176,210 L100.658665,210 Z" id="Shape" fill="#000000" opacity="0.05"></path>
                    <path d="M111.731686,220.371544 C111.731686,220.371544 94.3886924,221.68451 88.9552862,221.245487 C86.3405085,221.036233 85.2310901,220.014582 85.0350797,219.038063 C84.7959471,220.16229 85.7446371,221.64348 88.9552862,221.910176 C94.3886924,222.349199 111.731686,221.036233 111.731686,221.036233 C111.935982,220.038957 112.024175,219.019463 111.99434,218 C111.98193,218.79766 111.893947,219.592064 111.731686,220.371544 Z" id="Shape" fill="#FFFFFF" opacity="0.3"></path>
                    <path d="M109,94.2224593 C109,94.2224593 113.322613,101.075461 111.749079,105.721564 C110.175544,110.367667 120,100.855601 120,100.855601 C120,100.855601 116.856616,94.6372899 118.430151,88 L109,94.2224593 Z" id="Shape" fill="#FDC2CC"></path>
                    <path d="M108.650824,213 L101.343687,219.26644 C101.343687,219.26644 97.1648202,220.279236 94.8676194,220.074401 C92.5704186,219.869566 91.5237418,223.51108 96.9570529,223.916957 C102.390364,224.322834 119.733054,223.108996 119.733054,223.108996 C119.733054,223.108996 121.403033,216.637721 116.389176,213 L108.650824,213 Z" id="Shape" fill="#47465A"></path>
                    <path d="M110,210.099559 C108.926591,211.409669 107.413007,211.913852 105.829922,211.990243 C102.2313,212.158304 98.2697263,210.099559 98.2697263,210.099559 C100.945526,207.861294 94.1537053,188.110324 94.1537053,188.110324 C88.5974631,185.463365 89.0067484,179.558318 89.0067484,179.558318 L90.8060597,147.512169 L91.2616793,139.460526 L97.0264254,136 L101.567176,139.437608 L105.876257,142.707156 C106.156966,143.747297 106.337955,144.811295 106.416822,145.885034 C106.918776,153.367562 100.937804,155.128381 100.937804,155.128381 C100.937804,155.128381 103.408961,162.660563 101.142446,169.585434 C98.875932,176.510305 102.78731,182.617789 102.78731,182.617789 C102.78731,182.617789 110.19692,203.793457 108.965203,205.015718 C107.733486,206.237979 110,210.099559 110,210.099559 Z" id="Shape" fill="#565171"></path>
                    <path d="M110,210.099559 C108.926591,211.409669 107.413007,211.913852 105.829922,211.990243 C102.2313,212.158304 98.2697263,210.099559 98.2697263,210.099559 C100.945526,207.861294 94.1537053,188.110324 94.1537053,188.110324 C88.5974631,185.463365 89.0067484,179.558318 89.0067484,179.558318 L90.8060597,147.512169 L91.2616793,139.460526 L97.0264254,136 L101.567176,139.437608 L105.876257,142.707156 C106.156966,143.747297 106.337955,144.811295 106.416822,145.885034 C106.918776,153.367562 100.937804,155.128381 100.937804,155.128381 C100.937804,155.128381 103.408961,162.660563 101.142446,169.585434 C98.875932,176.510305 102.78731,182.617789 102.78731,182.617789 C102.78731,182.617789 110.19692,203.793457 108.965203,205.015718 C107.733486,206.237979 110,210.099559 110,210.099559 Z" id="Shape" fill="#000000" opacity="0.05"></path>
                    <path d="M117,213.100573 C113.543084,217.374284 105.408267,213.100573 105.408267,213.100573 C105.572082,212.949528 105.694287,212.758811 105.763116,212.546785 C107.255008,208.486951 100.730366,189.077658 100.730366,189.077658 C95.2397456,186.430936 94.6254372,180.121579 94.6254372,180.121579 L93.1869634,147.497772 L93,143.273711 L101.558347,140.004456 L104.187281,139 L112.944038,145.718014 C113.320021,147.109739 113.504868,148.54624 113.493482,149.987906 C113.38283,156.560789 108.052464,158.149586 108.052464,158.149586 C108.052464,158.149586 110.494436,165.681095 108.25469,172.605347 C106.014944,179.529599 109.891574,185.617441 109.891574,185.617441 C109.891574,185.617441 117.213672,206.791216 115.996502,208.013367 C114.779332,209.235519 117,213.100573 117,213.100573 Z" id="Shape" fill="#565171"></path>
                    <path d="M112.999495,149 C111.206973,148.755764 107.579157,146.701964 105.716646,145.588101 C105.00508,145.162539 104.550145,144.877597 104.550145,144.877597 C104.550145,144.877597 102.683745,139.944777 97.7105661,143.693424 C96.0927088,144.944003 94.2657219,145.927209 92.305782,146.60205 C91.557089,146.854353 90.7850836,147.038962 90,147.15343 L90.4588234,139.35269 L96.2641059,136 L100.836787,139.330487 L103.515849,138.357245 L112.439575,144.862795 C112.822727,146.211272 113.011098,147.603134 112.999495,149 Z" id="Shape" fill="#000000" opacity="0.1"></path>
                    <path d="M124.848104,110.87668 C124.123123,115.320947 122.55869,124.47365 120.803473,132.394857 C118.361432,143.369554 115.717159,140.883251 114.499954,143.575451 C113.282749,146.267652 114.297722,149.993221 114.297722,149.993221 C112.26396,150.199118 105.552162,145.646076 105.552162,145.646076 C105.552162,145.646076 103.720631,140.467572 98.8403637,144.402924 C93.9600967,148.338276 90.0948031,148.128494 90.0948031,148.128494 C89.076014,141.295045 96.6043696,123.07122 96.6043696,123.07122 C96.6043696,123.07122 103.926678,108.988643 105.552162,107.14334 C106.306401,106.231143 106.844307,105.154442 107.124226,103.996613 C107.249086,103.536029 107.335878,103.065616 107.383693,102.590297 C110.027966,102.3844 116.541348,97.8274728 116.541348,97.8274728 L121.627662,97 L121.627662,99.6922002 C121.687841,99.7196326 121.744275,99.7548899 121.795552,99.7970911 C122.631188,100.445861 123.703397,103.211873 124.416931,105.391273 C125.001151,107.1559 125.149241,109.039915 124.848104,110.87668 Z" id="Shape" fill="#E1A0A7"></path>
                    <path d="M100,128 L97.3418521,127.704797 L76.9678621,125.442804 C64.6223276,121.704797 72.4424521,116 72.4424521,116 L80.6676645,123.476015 C83.0403219,123.929889 92.3496266,122.870849 96.5201024,122.369004 C97.7700878,122.214022 98.5609736,122.110701 98.5609736,122.110701 L100,128 Z" id="Shape" fill="#FDC2CC"></path>
                    <path d="M121.987874,101.620148 C121.987874,101.620148 116.472414,97.3654688 108.183306,111.144698 C99.8941984,124.923927 98,122.695829 98,122.695829 C98,122.695829 99.695228,128.779374 98.847614,129.992281 C98.847614,129.992281 104.573983,129.585443 106.695007,129.992281 C108.816032,130.399118 121.967977,114.589505 121.967977,114.589505 C121.967977,114.589505 128.776745,105.67331 121.987874,101.620148 Z" id="Shape" fill="#000000" opacity="0.1"></path>
                    <path d="M121.982437,100.620148 C121.982437,100.620148 116.464565,96.3654688 108.187758,110.144698 C99.9109511,123.923927 98,121.695829 98,121.695829 C98,121.695829 104.576857,128.585443 106.698809,128.992281 C108.820761,129.399118 121.978456,113.589505 121.978456,113.589505 C121.978456,113.589505 128.774276,104.67331 121.982437,100.620148 Z" id="Shape" fill="#000000" opacity="0.1"></path>
                    <path d="M98.9445676,129.69625 C99.0421286,128.215 98.3813747,125.6125 98,124.2625 C99.4368071,124.105 100.345898,124 100.345898,124 L102,130 L98.9445676,129.69625 Z" id="Shape" fill="#000000" opacity="0.1"></path>
                    <path d="M121.987874,100.61986 C121.987874,100.61986 116.472414,96.3657073 108.183306,110.147032 C99.8941984,123.928357 98,121.696733 98,121.696733 C98,121.696733 99.695228,127.779525 98.847614,128.992282 C98.847614,128.992282 104.573983,128.585495 106.695007,128.992282 C108.816032,129.399068 121.967977,113.591413 121.967977,113.591413 C121.967977,113.591413 128.776745,104.67252 121.987874,100.61986 Z" id="Shape" fill="#E1A0A7"></path>
                    <path d="M120,88 L110,93.1566205 C110.423161,93.7006915 110.813865,94.2640464 111.170503,94.8443675 C111.745814,94.9479436 112.331398,95.0000823 112.918455,94.9999999 C115.583301,94.9999999 116.820133,92.5202569 118.431526,90.8498023 C118.314475,89.5217391 119.539602,89.4871541 120,88 Z" id="Shape" fill="#000000" opacity="0.1"></path>
                    <ellipse id="Oval" fill="#FDC2CC" cx="112.5" cy="87" rx="9.5" ry="9"></ellipse>
                    <path d="M100.900997,78.7012077 C101.795258,77.8158468 102.957115,77.2268624 104.21973,77.0188304 C105.451384,76.7626503 106.801847,76.6861786 107.784002,75.9252852 C108.896847,75.0649786 109.395845,73.4284844 110.770069,73.0614202 C111.367113,72.9461207 111.985627,72.9937876 112.556166,73.1990693 C114.748328,73.8387996 116.694494,75.0923408 118.148112,76.8008861 C118.492062,77.2911152 118.930358,77.7129823 119.439171,78.0435512 C119.742267,78.1672995 120.038381,78.3064168 120.326278,78.4603219 C120.641563,78.7022743 120.889309,79.0163801 121.047053,79.3741586 C122.036453,81.3037429 122.264507,83.5150721 121.688622,85.595131 C121.344076,86.8225017 120.726269,87.96193 120.357961,89.1854771 C119.989653,90.4090242 119.898566,91.7931619 120.567857,92.8867071 C119.918367,93.2078882 119.098585,92.8025883 118.690673,92.2175798 C118.282762,91.6325713 118.159993,90.9137374 117.946137,90.2369629 C117.52549,88.9084416 116.733422,87.717694 115.657082,86.7957366 C114.991751,86.2298461 113.803661,85.8474876 113.340305,86.5777923 C113.162092,86.8607376 113.173973,87.2239781 113.019521,87.5183941 C112.718538,88.0957554 111.83143,88.210463 111.265107,87.9007526 C110.707409,87.5290881 110.315616,86.9678317 110.168104,86.3292593 C109.300797,83.4883358 107.815684,81.7027218 104.671204,82.9147981 C103.483114,83.3659811 102.116809,83.6795151 100.988123,82.9147981 C99.5426131,81.8900774 99.8317152,79.8597539 100.900997,78.7012077 Z" id="Shape" fill="#000000" opacity="0.1"></path>
                    <path d="M100.900997,78.7012077 C101.795258,77.8158468 102.957115,77.2268624 104.21973,77.0188304 C105.451384,76.7626503 106.801847,76.6861786 107.784002,75.9252852 C108.896847,75.0649786 109.395845,73.4284844 110.770069,73.0614202 C111.367113,72.9461207 111.985627,72.9937876 112.556166,73.1990693 C114.748328,73.8387996 116.694494,75.0923408 118.148112,76.8008861 C118.492062,77.2911152 118.930358,77.7129823 119.439171,78.0435512 C119.742267,78.1672995 120.038381,78.3064168 120.326278,78.4603219 C120.641563,78.7022743 120.889309,79.0163801 121.047053,79.3741586 C122.036453,81.3037429 122.264507,83.5150721 121.688622,85.595131 C121.344076,86.8225017 120.726269,87.96193 120.357961,89.1854771 C119.989653,90.4090242 119.898566,91.7931619 120.567857,92.8867071 C119.918367,93.2078882 119.098585,92.8025883 118.690673,92.2175798 C118.282762,91.6325713 118.159993,90.9137374 117.946137,90.2369629 C117.52549,88.9084416 116.733422,87.717694 115.657082,86.7957366 C114.991751,86.2298461 113.803661,85.8474876 113.340305,86.5777923 C113.162092,86.8607376 113.173973,87.2239781 113.019521,87.5183941 C112.718538,88.0957554 111.83143,88.210463 111.265107,87.9007526 C110.707409,87.5290881 110.315616,86.9678317 110.168104,86.3292593 C109.300797,83.4883358 107.815684,81.7027218 104.671204,82.9147981 C103.483114,83.3659811 102.116809,83.6795151 100.988123,82.9147981 C99.5426131,81.893901 99.8317152,79.8635775 100.900997,78.7012077 Z" id="Shape" fill="#8F5A6A"></path>
                    <path d="M122,99.3953359 L117.772834,99.3953359 C117.772834,99.3953359 109.45121,102.946696 109.24434,102.770128 C109.103825,102.650194 107.815769,102.856746 107,103 C107.127724,102.605023 107.216506,102.201617 107.265418,101.794003 C109.970336,101.617435 116.633099,97.7096058 116.633099,97.7096058 L121.836066,97 L121.836066,99.3087174 C121.894694,99.3316975 121.949759,99.3607922 122,99.3953359 Z" id="Shape" fill="#000000" opacity="0.05"></path>
                    <path d="M119.731686,222.371544 C119.731686,222.371544 102.388692,223.68451 96.9552862,223.245487 C94.3405085,223.036233 93.2310901,222.014582 93.0350797,221.038063 C92.7959471,222.16229 93.7446371,223.64348 96.9552862,223.910176 C102.388692,224.349199 119.731686,223.036233 119.731686,223.036233 C119.935982,222.038957 120.024175,221.019463 119.99434,220 C119.98193,220.79766 119.893947,221.592064 119.731686,222.371544 Z" id="Shape" fill="#FFFFFF" opacity="0.3"></path>
                    <g id="Group" opacity="0.05" transform="translate(90.000000, 98.000000)" fill="#000000">
                        <path d="M6.87445652,44.0496183 C4.13913043,46.2251908 1.71956522,47.1030534 0.129347826,47.4847328 C0.129347826,47.6374046 0.159782609,47.7862595 0.182608696,47.9312977 C0.182608696,47.9312977 4.03641304,48.1335878 8.90217391,44.2709924 C9.6561105,43.6228497 10.5473213,43.1555545 11.5081522,42.9045802 C10.4467391,42.3816794 8.9326087,42.4160305 6.87445652,44.0496183 Z" id="Shape"></path>
                        <path d="M34.3951087,5.90458015 C33.6684783,3.76335878 32.6146739,1.04961832 31.7815217,0.408396947 C31.7303964,0.366935026 31.6741307,0.332295393 31.6141304,0.305343511 C31.6141304,0.305343511 29.936413,0.36259542 29.9934783,0.408396947 C30.8266304,1.04580153 31.6407609,3.5610687 32.3673913,5.69847328 C32.9562197,7.43597717 33.1078175,9.29256989 32.8086957,11.1030534 C32.0858696,15.4694656 30.526087,24.4618321 28.776087,32.2442748 C26.3413043,43.0267176 23.7048913,40.5839695 22.4913043,43.2290076 C21.4945652,45.3969466 21.9929348,48.2442748 22.2097826,49.2022901 C22.8655982,49.5315742 23.5844663,49.7151338 24.3173913,49.740458 C24.3173913,49.740458 23.3016304,46.0801527 24.5190217,43.4351145 C25.736413,40.7900763 28.3728261,43.2328244 30.8038043,32.4503817 C32.5652174,24.648855 34.113587,15.6564885 34.836413,11.3091603 C35.1355349,9.49867676 34.9839371,7.64208404 34.3951087,5.90458015 Z" id="Shape"></path>
                    </g>
                    <g id="nodejs-icon" transform="translate(16.000000, 41.000000)" fill="#8CC84B">
                        <path d="M35.9356258,0.928167459 C38.0942277,-0.3065989 40.9058053,-0.312176264 43.0625469,0.928167459 C53.9129169,7.05521137 64.7666975,13.1726498 75.6152072,19.303412 C77.6556783,20.452039 79.0205398,22.7214064 78.9997661,25.0710258 L78.9997661,61.9336818 C79.0149588,64.3805952 77.5152234,66.7041869 75.3625125,67.8267862 C64.5477988,73.9200561 53.7386661,80.0207625 42.9258127,86.1140323 C40.7225628,87.3729673 37.8545553,87.2759831 35.7201376,85.913867 C32.4778939,84.0355348 29.2300692,82.1664982 25.9875154,80.2900252 C25.3249282,79.8952718 24.578006,79.5810803 24.1101332,78.9390638 C24.5237464,78.3819471 25.2632272,78.3125399 25.8641136,78.0693049 C27.2175031,77.6392282 28.460513,76.9488745 29.703833,76.2789711 C30.0182287,76.0639328 30.4020766,76.1463538 30.7034499,76.3387729 C33.4759605,77.927392 36.2239768,79.5621792 39.005789,81.1356155 C39.599234,81.4780037 40.2001204,81.0234485 40.7073701,80.7408621 C51.3199281,74.7467454 61.9455083,68.7752479 72.5562059,62.7792721 C72.9493555,62.5902614 73.1667039,62.1731985 73.1347683,61.742812 C73.1422096,49.5826098 73.1366286,37.4202386 73.1384889,25.2600364 C73.1834469,24.7717072 72.9006769,24.3227295 72.4588487,24.1228739 C61.6816516,18.0574909 50.9100355,11.9828122 40.1346988,5.9158799 C39.7525663,5.65333883 39.2482351,5.65260018 38.8653342,5.91402078 C28.0899974,11.9828122 17.3202417,18.0630682 6.54490496,24.1281414 C6.10462705,24.3283068 5.80914477,24.7698481 5.86154404,25.2600364 C5.86340437,37.4202386 5.86154404,49.5826098 5.86154404,61.7446711 C5.82327605,62.1747663 6.05711768,62.583167 6.44754773,62.7681173 C9.32299656,64.3976371 12.202166,66.0156923 15.0794752,67.6396347 C16.700442,68.5115626 18.6906842,69.0296377 20.4766002,68.3615935 C22.0526091,67.7967305 23.1573346,66.1895201 23.1272593,64.5172406 C23.1421419,52.4279949 23.119818,40.33689 23.1384212,28.2495034 C23.0990443,27.7128371 23.6084644,27.2694366 24.1305968,27.3199428 C25.5122013,27.3106472 26.8956661,27.3013516 28.2772706,27.323661 C28.8539726,27.3106472 29.2508429,27.888524 29.1795302,28.4292184 C29.1739493,40.594998 29.1944129,52.7610874 29.1702286,64.926867 C29.1739493,68.1691744 27.8410234,71.6971668 24.8400023,73.2836169 C21.1429081,75.1975823 16.5733195,74.7916741 12.9208732,72.9564116 C9.7589337,71.3792571 6.74147975,69.5179669 3.63566016,67.8283355 C1.47736824,66.7119332 -0.0149258241,64.3790459 0.000266864331,61.9339916 L0.000266864331,25.0710258 C-0.0223671408,22.6727594 1.39675398,20.3621815 3.50078629,19.2302865 C14.3136397,13.132059 25.1246327,7.02918367 35.9356258,0.928167459 Z" id="Shape"></path>
                        <path d="M45.2383371,27.122481 C50.0155438,26.8132628 55.1297619,26.9392874 59.4286198,29.3059601 C62.7569604,31.1195774 64.6021997,34.9258997 64.6609332,38.6444153 C64.5679646,39.1459869 64.0465863,39.4226725 63.5704361,39.3882448 C62.1843866,39.3863497 60.7980229,39.4071958 59.4119734,39.3787692 C58.8240095,39.4015105 58.4822869,38.8563514 58.4084773,38.3336178 C58.0102197,36.5544282 57.0453559,34.7922946 55.3800863,33.934127 C52.8237625,32.6470336 49.8597585,32.7117831 47.0722694,32.7386304 C45.0373238,32.8472832 42.8491055,33.0244757 41.1251024,34.2278686 C39.8015554,35.139415 39.3995288,36.9795639 39.8719101,38.4615375 C40.3172802,39.52564 41.5387501,39.8689702 42.5381631,40.1854531 C48.2953097,41.6996435 54.3960634,41.5489825 60.0432808,43.5416874 C62.3813168,44.3540566 64.6684712,45.9333124 65.4687554,48.3950563 C66.515595,51.6944374 66.0567194,55.638155 63.7224524,58.2868827 C61.8294724,60.4665715 59.0724494,61.6529085 56.3226502,62.2972448 C52.6645222,63.1175103 48.8681976,63.1383565 45.1532205,62.7741801 C41.6599862,62.3736808 38.0247863,61.4507637 35.3280672,59.0572437 C33.0220678,57.0436926 31.8957651,53.9063431 32.0075788,50.8782781 C32.0342758,50.366915 32.5405781,50.0103191 33.0277213,50.0523273 C34.4235074,50.0409566 35.8192935,50.0371664 37.2150796,50.0542224 C37.7725774,50.0141093 38.185911,50.498625 38.2144926,51.027044 C38.4720409,52.7222171 39.1055469,54.5014066 40.5754567,55.506445 C43.4122569,57.3469097 46.9717627,57.2208851 50.220012,57.2723688 C52.9110776,57.1523454 55.9319306,57.1160225 58.1280009,55.3273574 C59.2866542,54.3071582 59.6299472,52.6002986 59.3168062,51.1319065 C58.9775962,49.8921908 57.6879703,49.314499 56.5805126,48.936741 C50.8971756,47.128809 44.7282658,47.7848319 39.0998934,45.7403273 C36.8149375,44.928274 34.6053616,43.3929216 33.7274988,41.03225 C32.502574,37.6911765 33.0638408,33.55858 35.6427787,30.9992381 C38.1573295,28.4534778 41.78719,27.4730758 45.2383371,27.1221652 L45.2383371,27.122481 Z" id="Shape"></path>
                    </g>
                    <g id="react" transform="translate(295.000000, 41.000000)">
                        <path d="M0,39.3579931 C0,45.9938986 6.48958063,52.1884464 16.7204496,55.680283 C14.6773887,65.949964 16.3545179,74.2276647 21.9555556,77.4528908 C27.7125811,80.7682534 36.2894942,78.4734009 44.4302637,71.3678191 C52.3655858,78.1864148 60.3853005,80.8697864 65.9814959,77.6352358 C71.7333333,74.3105487 73.4824038,65.4716539 71.3829658,54.8811425 C82.0392564,51.3634046 88,46.0812722 88,39.3579931 C88,32.8761139 81.4986597,27.2686615 71.4054475,23.7992727 C73.6657155,12.7712025 71.7506269,4.69449567 65.9175097,1.33596428 C60.2939905,-1.90203986 52.1808906,0.920162553 44.1290099,7.91695905 C35.7520104,0.490546815 27.7191526,-1.77667772 21.8922611,1.59117813 C16.27393,4.83850673 14.6708171,13.2667801 16.7204496,23.7264038 C6.83476005,27.1678192 0,32.9023605 0,39.3579931 Z" id="Shape" fill="#FFFFFF"></path>
                        <path d="M69.9541415,27.6882235 C69.113281,27.4009721 68.2652863,27.1348667 67.410965,26.8901604 C67.5526422,26.3168245 67.6836576,25.7409274 67.8039441,25.1627649 C69.7289826,15.8562079 68.4703305,8.35887236 64.1720335,5.89086593 C60.0509967,3.52383607 53.3109145,5.99184249 46.5037043,11.891311 C45.8329417,12.4739608 45.1770679,13.0733957 44.5367107,13.689042 C44.1078809,13.2796737 43.6714733,12.878252 43.2277125,12.4849836 C36.0936023,6.17638586 28.9427101,3.51826495 24.6489582,5.99358347 C20.5317672,8.36722904 19.3122732,15.4157412 21.0453672,24.2355215 C21.217798,25.108937 21.4124857,25.977848 21.629242,26.8414131 C20.6174255,27.1276295 19.640222,27.4326483 18.7053232,27.7571661 C10.3415798,30.6611127 5,35.2127182 5,39.9335465 C5,44.8096698 10.7338597,49.7004173 19.4458302,52.6656463 C20.1522423,52.9049713 20.8645343,53.1267243 21.5820425,53.3306988 C21.3489478,54.2610551 21.1420052,55.1977172 20.9614571,56.1395882 C19.3091266,64.8061626 20.5995946,71.6875412 24.7059472,74.0465625 C28.9472552,76.4821868 36.0656322,73.9786645 42.9973092,67.9444445 C43.5451725,67.4674173 44.0951336,66.9614899 44.6457939,66.4311889 C45.3393888,67.0976549 46.051503,67.7447365 46.781307,68.3716798 C53.4955168,74.1256028 60.1265158,76.4491083 64.2293721,74.0838194 C68.4668343,71.640883 69.8436598,64.2483542 68.0556746,55.2541282 C67.9193206,54.5671394 67.7602409,53.8655264 67.5819319,53.1510302 C68.0818965,53.0040919 68.5724212,52.8522788 69.0510586,52.6941983 C78.1077599,49.7059885 84,44.8747823 84,39.9335465 C84,35.1956567 78.4864044,30.61341 69.9541415,27.6882235 Z" id="Shape" fill="#53C1DE"></path>
                        <path d="M67.4080483,48.9607371 C66.9777597,49.1024909 66.5359735,49.2393924 66.0858254,49.3721349 C65.0893676,46.2344902 63.744498,42.897905 62.0992974,39.4511054 C63.6695895,36.0857535 64.9621973,32.792145 65.9307822,29.6746022 C66.7359619,29.906815 67.517798,30.1511582 68.2710644,30.409365 C75.5563556,32.9037457 80,36.5924625 80,39.4344692 C80,42.4618995 75.2006271,46.3921869 67.4083967,48.9607371 L67.4080483,48.9607371 Z M64.1747866,55.3341105 C64.9625457,59.2928179 65.0750827,62.8720134 64.5531618,65.6700037 C64.0841995,68.1841399 63.1413971,69.8602307 61.9756112,70.5315681 C59.4945706,71.9601963 54.1886069,70.1031876 48.466988,65.2052316 C47.8109285,64.643762 47.1499913,64.0441679 46.487312,63.4099152 C48.7056501,60.996289 50.9225945,58.1903272 53.0862319,55.0745174 C56.8922827,54.7386754 60.4878927,54.1893363 63.7486789,53.4396704 C63.9089484,54.0843207 64.0517972,54.7161473 64.1747866,55.3341105 Z M31.476337,70.2847987 C29.052436,71.136361 27.1218861,71.160622 25.9550549,70.4913641 C23.4715754,69.0668949 22.4395796,63.5665721 23.8475118,56.1894852 C24.0149376,55.3176685 24.2066378,54.4506387 24.4223913,53.5893956 C27.6469427,54.2988575 31.2164218,54.809379 35.0315313,55.1171475 C37.2094536,58.1660662 39.4905058,60.9685621 41.789327,63.4227389 C41.3007663,63.8928703 40.8006438,64.350965 40.2894141,64.7966065 C37.2348876,67.452843 34.1740898,69.3368855 31.4766854,70.2847987 L31.476337,70.2847987 Z M20.1205505,48.9420214 C16.281749,47.6367779 13.1115499,45.9405851 10.9385053,44.0898149 C8.98600546,42.4262012 8,40.774718 8,39.4344692 C8,36.5831047 12.2739678,32.9456827 19.4021253,30.4734834 C20.2968118,30.1645425 21.2003984,29.8817225 22.1117241,29.625387 C23.0970327,32.8129401 24.3892921,36.1457129 25.9487835,39.515917 C24.3690843,42.936376 23.058359,46.3221765 22.0639916,49.5471609 C21.4112913,49.3613187 20.7632819,49.1595446 20.1205505,48.9420214 Z M23.9272981,23.1664069 C22.4475931,15.6444469 23.4301144,9.97048444 25.9027931,8.5467084 C28.5367865,7.03004725 34.3604901,9.19274504 40.4988096,14.6143927 C40.8911213,14.9609789 41.2851751,15.3238547 41.6799257,15.6992075 C39.3929505,18.1422935 37.132803,20.9236477 34.9736949,23.9548904 C31.2711225,24.2962778 27.726729,24.8445772 24.4683816,25.5789933 C24.2676697,24.7793322 24.0872513,23.9747657 23.9272981,23.1660603 L23.9272981,23.1664069 Z M57.8859532,31.5076966 C57.1163384,30.1852727 56.318174,28.8794952 55.4920156,27.5912727 C58.0040648,27.9066661 60.4105453,28.3260354 62.6703443,28.8393295 C61.9919865,31.0023739 61.146391,33.2641954 60.15063,35.5828569 C59.4230824,34.2096096 58.6680396,32.850952 57.8859532,31.5076966 Z M44.0376285,18.089959 C45.5887579,19.7615442 47.1423262,21.6282574 48.6704605,23.6533604 C45.5706442,23.5076487 42.4656561,23.5069548 39.3657743,23.6512809 C40.8953022,21.6448935 42.4621102,19.780953 44.0376285,18.089959 Z M30.1004587,31.5305713 C29.3281642,32.8631438 28.587239,34.2134647 27.8782881,35.5804308 C26.8989025,33.2697407 26.0609721,30.9978683 25.3766912,28.8039777 C27.6229023,28.3038539 30.0182336,27.8952288 32.5139074,27.5850341 C31.6784902,28.8812403 30.8737855,30.1967819 30.1004587,31.5305713 Z M32.5856803,51.5227022 C30.0074328,51.236422 27.5758667,50.8485921 25.3303525,50.3623316 C26.0254341,48.1296234 26.8818303,45.8088823 27.8821207,43.4486304 C28.5940602,44.8166098 29.3382414,46.1677452 30.1140468,47.5009161 C30.9056773,48.8608606 31.7297892,50.201837 32.5856803,51.5227022 Z M44.1306544,61.0153512 C42.5366703,59.3042552 40.9468672,57.4118946 39.3939957,55.376394 C40.9012252,55.4353136 42.4380698,55.46512 44,55.46512 C45.6047849,55.46512 47.1911039,55.4294217 48.7523373,55.3601044 C47.2193252,57.4326898 45.6713315,59.3278231 44.1306544,61.0153512 Z M60.1826839,43.328365 C61.2348876,45.7142643 62.1219441,48.0225283 62.8264328,50.2174586 C60.5436386,50.735605 58.0793218,51.1528947 55.4826084,51.4627428 C56.3147383,50.1504683 57.120542,48.8218562 57.8995413,47.4776948 C58.6914414,46.1116065 59.4526775,44.728154 60.1826839,43.328365 Z M54.9861216,45.8064562 C53.7935776,47.8672425 52.5339839,49.8889082 51.2093374,51.8682486 C48.8735846,52.0342634 46.4597875,52.1198702 44,52.1198702 C41.5503165,52.1198702 39.1671796,52.0439678 36.8721909,51.8959755 C35.5131884,49.9212437 34.2297669,47.896079 33.0246792,45.8248253 C31.8252242,43.7645608 30.7048536,41.6597282 29.6659892,39.5148772 C30.7022112,37.3693837 31.8191963,35.2634235 33.0145752,33.2014633 L33.0145752,33.2021564 C34.2095792,31.1397571 35.4828969,29.1232516 36.8317752,27.1570002 C39.1731026,26.9809344 41.5736601,26.8887425 44.0003484,26.8887425 C46.4378375,26.8887425 48.8415307,26.9816276 51.1821613,27.1590797 C52.5173959,29.1223054 53.7825697,31.1317917 54.9753208,33.1837874 C56.1748104,35.2411602 57.3067021,37.3368043 58.3692004,39.4673949 C57.3176316,41.6196929 56.1893397,43.7340534 54.98647,45.8064562 L54.9861216,45.8064562 Z M61.9240462,8.44723816 C64.5601301,9.95974027 65.5855061,16.0586174 63.9291563,24.0567868 C63.8205914,24.5778192 63.7025767,25.0968588 63.5751699,25.6136519 C60.3091574,24.863986 56.7623251,24.3059822 53.0489519,23.959396 C50.8856629,20.8952276 48.6443296,18.1090212 46.394286,15.6974746 C46.9838906,15.1320358 47.5875261,14.581256 48.2046339,14.0456448 C54.0168399,9.01390657 59.4489286,7.02727456 61.9240462,8.44723816 Z" id="Shape" fill="#FFFFFF"></path>
                        <path d="M45,33 C48.8661843,33 52,36.134085 52,39.9998265 C52,43.865915 48.8661843,47 45,47 C41.1341627,47 38,43.865915 38,39.9998265 C38,36.134085 41.1341627,33 45,33" id="Shape" fill="#53C1DE"></path>
                    </g>
                </g>
            </g>
        </g>
    </g>
</svg>