<?xml version="1.0" encoding="UTF-8"?>
<svg width="277px" height="251px" viewBox="0 0 277 251" version="1.1" xmlns="http://www.w3.org/2000/svg" xmlns:xlink="http://www.w3.org/1999/xlink">
    <!-- Generator: Sketch 51 (57462) - http://www.bohemiancoding.com/sketch -->
    <title>student image</title>
    <desc>Created with Sketch.</desc>
    <defs>
        <linearGradient x1="50.0093293%" y1="99.9928768%" x2="50.0093293%" y2="-0.000992369547%" id="linearGradient-1">
            <stop stop-color="#808080" stop-opacity="0.25" offset="0%"></stop>
            <stop stop-color="#808080" stop-opacity="0.12" offset="54%"></stop>
            <stop stop-color="#808080" stop-opacity="0.1" offset="100%"></stop>
        </linearGradient>
        <linearGradient x1="49.9991062%" y1="100%" x2="49.9991062%" y2="0%" id="linearGradient-2">
            <stop stop-color="#808080" stop-opacity="0.25" offset="0%"></stop>
            <stop stop-color="#808080" stop-opacity="0.12" offset="54%"></stop>
            <stop stop-color="#808080" stop-opacity="0.1" offset="100%"></stop>
        </linearGradient>
        <linearGradient x1="50%" y1="100%" x2="50%" y2="0%" id="linearGradient-3">
            <stop stop-color="#808080" stop-opacity="0.25" offset="0%"></stop>
            <stop stop-color="#808080" stop-opacity="0.12" offset="54%"></stop>
            <stop stop-color="#808080" stop-opacity="0.1" offset="100%"></stop>
        </linearGradient>
    </defs>
    <g id="Page-1" stroke="none" stroke-width="1" fill="none" fill-rule="evenodd">
        <g id="Altcampus-Landing-Page" transform="translate(-1057.000000, -437.000000)" fill-rule="nonzero">
            <g id="Hero" transform="translate(0.000000, -4.000000)">
                <g id="Group-22" transform="translate(915.000000, 4.000000)">
                    <g id="student-image" transform="translate(142.000000, 437.000000)">
                        <path d="M59.4908519,183.639943 C59.4908519,183.639943 22.9976819,170.172491 18,189.125872 L31.9970196,225.0274 L33.4844772,248 L63.9795513,248 L63.9795513,228.538745 C63.9795513,228.538745 59.4820763,209.086246 71,197.111772 L59.4908519,183.639943 Z" id="Shape" fill="#535461"></path>
                        <path d="M64.8539664,76.5620692 C63.3119034,76.0479343 61.4509435,75.5860844 60.1971982,76.6143541 C59.4676669,77.2112734 59.1531385,78.1698299 58.5852399,78.923604 C56.7024377,81.415851 52.9062542,80.9496439 49.9094971,81.8428443 C45.5017305,83.1499669 42.7845543,87.559327 41.220649,91.8641173 C34.3184971,110.900179 42.0113385,132.685555 36.004719,152.017897 C34.2573388,157.708238 31.3435823,164.025997 34.2005489,169.258844 C35.1528712,171.001674 36.7036711,172.461294 37.1798322,174.391478 C37.8263629,177.005724 36.5813545,180.447813 38.7568429,182.042502 C39.4339527,182.539209 40.2945375,182.691707 41.1070693,182.913917 C46.0041023,184.22104 49.7172853,188.06398 53.4479421,191.484284 C57.1785988,194.904588 61.669366,198.211608 66.7280317,197.989398 C68.3614782,197.852994 69.9738104,197.529905 71.5333273,197.026484 L96.651918,189.968022 C99.172514,189.257819 101.894059,188.403832 103.366227,186.238366 C104.239917,184.931243 104.54134,183.284269 104.768499,181.702651 C105.634991,175.687163 106.045333,169.615057 105.996034,163.538004 C105.996034,161.53375 105.904296,159.481567 105.166028,157.616739 C104.292338,155.464344 102.649801,153.743299 101.426634,151.769544 C99.0720396,147.970174 98.4342458,143.386531 97.8532419,138.955386 C96.9271304,131.901281 96.0010189,124.70775 97.2809749,117.710287 C97.8313997,114.708262 98.7793534,111.789022 99.4084103,108.804426 C100.428409,103.943304 100.591019,98.9420488 99.8889399,94.0252266 C99.3035675,89.9426471 98.0410853,85.7990686 95.2802245,82.7273306 C93.4769315,80.684965 91.0130357,79.3375137 88.3169144,78.9192469 C84.9182598,78.4835394 83.2276695,80.4703656 80.2003332,81.2067114 C75.7226714,82.3003372 69.1612587,77.999904 64.8539664,76.5620692 Z" id="Shape" fill="#000000" opacity="0.1"></path>
                        <path d="M64.8520604,75.5620692 C63.3100896,75.0479343 61.449241,74.5860844 60.1955707,75.6143541 C59.4660831,76.2112734 59.1515735,77.1698299 58.5837089,77.923604 C56.7010194,80.415851 52.905063,79.9496439 49.9084853,80.8428443 C45.5009824,82.1499669 42.7839688,86.559327 41.2201571,90.8641173 C34.3184182,109.900179 42.0107993,131.685555 36.0045392,151.017897 C34.2572636,156.708238 31.3436814,163.025997 34.2004771,168.258844 C35.1527423,170.001674 36.7034495,171.461294 37.1795821,173.391478 C37.8260741,176.005724 36.5811402,179.447813 38.7564984,181.042502 C39.4335677,181.539209 40.294101,181.691707 41.1065841,181.913917 C46.0033242,183.22104 49.716285,187.06398 53.4467185,190.484284 C57.177152,193.904588 61.6676505,197.211608 66.7260135,196.989398 C68.3593623,196.852994 69.9715979,196.529905 71.5310216,196.026484 L96.6524774,188.972379 C99.1729225,188.262176 101.894304,187.408189 103.366384,185.242723 C104.240022,183.9356 104.541427,182.288626 104.768573,180.707008 C105.635013,174.69152 106.04533,168.619414 105.996034,162.542361 C105.996034,160.538107 105.904302,158.485924 105.166078,156.621096 C104.29244,154.468701 102.650001,152.747656 101.426908,150.773901 C99.0724542,146.974532 98.4346986,142.390888 97.8537294,137.959743 C96.9276733,130.905638 96.0016172,123.712107 97.2814966,116.714644 C97.8318884,113.71262 98.7797855,110.793379 99.4088047,107.808783 C100.428742,102.947661 100.591343,97.9464059 99.8893055,93.0295836 C99.3039682,88.9470042 98.0415615,84.8034257 95.280866,81.7316877 C93.4830381,79.6871343 91.0241239,78.3351664 88.331077,77.9105327 C84.9326259,77.4748252 83.2421367,79.4616515 80.2149816,80.1979972 C75.720115,81.3046943 69.1590949,76.999904 64.8520604,75.5620692 Z" id="Shape" fill="#E0E0E0"></path>
                        <path d="M59.757375,39.1363951 C59.757375,39.1363951 60.2777118,58.4630471 54.0382344,57.9540985 C47.7987569,57.4451499 71.7205573,90 71.7205573,90 L92,79.3165447 C92,79.3165447 80.041382,60.4988413 88.3485136,48.7974888 C96.6556452,37.0961364 59.757375,39.1363951 59.757375,39.1363951 Z" id="Shape" fill="#FDA57D"></path>
                        <path d="M24.3793243,198.773795 C24.3793243,198.773795 20.4169003,226.184017 10.5043159,218.708104 C0.591731505,211.232191 2.07927159,198.773795 2.07927159,198.773795 C2.07927159,198.773795 21.4042441,145.943719 20.4125507,137.96912 C19.4208573,129.994521 53.4168027,68 53.4168027,68 L66,169.863141 C66,169.863141 28.3417483,183.821969 24.3793243,198.773795 Z" id="Shape" fill="#000000" opacity="0.1"></path>
                        <path d="M23.3793243,198.773795 C23.3793243,198.773795 19.4169003,226.184017 9.50431588,218.708104 C-0.408268495,211.232191 1.07927159,198.773795 1.07927159,198.773795 C1.07927159,198.773795 20.4042441,145.943719 19.4125507,137.96912 C18.4208573,129.994521 52.4168027,68 52.4168027,68 L65,169.863141 C65,169.863141 27.3417483,183.821969 23.3793243,198.773795 Z" id="Shape" fill="#538B69"></path>
                        <path d="M61,51 C61,51 41.1753346,64.4495885 33.5497769,63.9511317 L27.6242411,65.5470679 C15.6226951,68.7793676 6.52921255,78.4002647 4.15858386,90.373714 L4.06488187,90.8503086 C1.01287397,106.792181 0,150.630144 0,150.630144 C0,150.630144 0.508667983,162.085905 5.59088582,165.059156 L38.1233268,187 C38.1233268,187 37.1059908,163.087191 49.3095604,160.59928 C61.51313,158.111368 46.2575525,159.602366 46.2575525,159.602366 L23.8895472,146.646862 C23.8895472,146.646862 24.3982152,127.220165 30.497769,120.744599 C36.5973228,114.269033 57.9479921,80.3958333 57.9479921,80.3958333 L51.8484383,59.4519033 L61,51 Z" id="Shape" fill="#538B69"></path>
                        <path d="M81.9031667,64 C81.9031667,64 94.2100136,67.2521219 102.816016,68.8277113 C105.547362,69.327583 107.87408,71.1026818 109.074927,73.6027566 C111.67255,79.0229597 115.632718,88.814436 114.951446,96.9864345 L122.463018,126.488139 L144,152.487559 L124.467276,161.502213 L102.44681,137.003772 L120.467551,183.525354 L86.9138115,185 C86.9138115,185 76.8969172,109.994922 79.4022396,97.4955386 L81.9031667,64 Z" id="Shape" fill="#000000" opacity="0.1"></path>
                        <path d="M81.9073654,64 C81.9073654,64 94.2133802,67.2521219 102.818801,68.8277113 C105.549962,69.327583 107.876523,71.1026818 109.077288,73.6027566 C111.674736,79.0229597 115.634636,88.814436 114.95341,96.9864345 L122.464474,126.488139 L144,152.487559 L124.472992,161.489046 L102.44083,136.986217 L120.460352,183.507798 L86.9132764,185 C86.9132764,185 76.8970594,109.994922 79.4022124,97.4955386 L81.9073654,64 Z" id="Shape" fill="#538B69"></path>
                        <polygon id="Shape" fill="#E0E0E0" points="58.8734879 50 66 84.1913313 54.3689516 90 48 59.2007538"></polygon>
                        <polygon id="Shape" fill="#E0E0E0" points="76 85.5152888 80.8119971 64 87 76.6113628 83.7933431 87"></polygon>
                        <path d="M95,92 C95,92 95,125.532764 99,128" id="Shape" fill="#000000" opacity="0.1"></path>
                        <path d="M31,100 C31,100 19.2914497,132.587496 22.5837059,136" id="Shape" fill="#000000" opacity="0.1"></path>
                        <path d="M28,145 C28,145 47.3433642,156.809775 50,157" id="Shape" fill="#000000" opacity="0.1"></path>
                        <path d="M59.1940068,40.1293288 C59.1940068,40.1293288 59.2733732,42.9666473 59,46.3824894 C63.1502224,55.8537656 73.4755106,61.3589786 83.9960102,59.7098037 C83.8637328,56.0812691 84.5824397,52.4442267 86.8223362,49.3346618 C94.8515715,38.1895729 59.1940068,40.1293288 59.1940068,40.1293288 Z" id="Shape" fill="#000000" opacity="0.1"></path>
                        <circle id="Oval" fill="#FDA57D" cx="79" cy="35" r="23"></circle>
                        <path d="M93.2792225,26.0296516 C95.9779202,26.4009425 99.4161035,25.4748994 99.9345935,22.731715 C100.593331,19.2590532 96.0756683,17.0050992 95.3786818,13.5586462 C95.1151869,12.2482078 95.4296808,10.9028244 95.2766838,9.58801788 C94.95369,6.91035542 92.8542307,4.85733527 90.7292719,3.32412234 C84.0044084,-1.52513884 73.857289,0.141769284 65.6760076,0.904179435 C64.6645272,1.00464638 49.972562,8.92406242 49.1905772,9.58801788 C48.3023444,10.3393359 63.5510488,-0.10485813 62.9433106,0.904179435 C60.8523511,4.37247306 57.2611707,7.42579452 53.9164856,9.58801788 C49.976812,12.117164 54.0949821,8.78865046 53.9164856,13.5586462 C53.737989,18.328642 47.8816026,28.6592647 49.1905772,33.2370628 C50.3040556,37.133433 51.472783,41.1302701 53.9164856,44.3190035 C56.3601882,47.507737 60.4188595,49.7354822 64.2522852,48.7744941 C62.4928193,47.4640557 63.7720445,44.4456792 65.6760076,43.3885923 C67.5799707,42.3315053 69.9259252,42.1480439 71.5791432,40.6803529 C73.2323611,39.2126619 73.704102,36.8189278 74.2268418,34.6392319 C74.8983288,31.8873113 75.86731,29.1004456 77.8180222,27.0911067 C81.647198,23.1554234 88.5618139,25.3875368 93.2792225,26.0296516 Z" id="Shape" fill="#6D6D6D"></path>
                        <path d="M255,181.030783 C255,181.030783 245.918899,171.990313 242.580194,159.975831 L243.360842,159.975831 L242.985954,158.931856 L243.360842,158.931856 L242.178843,155.589383 C245.526369,152.317092 248.000628,149.14569 248.401978,147.34286 C249.081186,144.307437 249.755984,127.884575 250.166155,116.471036 L250.527811,116.558765 C251.4099,115.0586 251.595138,113.16804 251.533392,111.452939 C251.566757,109.526411 251.31714,107.605358 250.792438,105.750556 L249.156164,89.4549006 C248.837917,86.4252051 247.28341,83.6581722 244.855982,81.8005482 L228.272718,69.0052783 C229.145484,67.8344915 230.254024,66.8574712 231.527624,66.1365411 C232.47587,65.6364859 233.57848,65.294343 234.217994,64.4389855 C235.37353,62.8905693 234.390002,60.5832974 235.179471,58.8199452 C235.77047,57.5040107 237.225916,56.7670873 238.077132,55.5871327 C239.819257,53.1701997 238.55787,49.8321125 237.256789,47.156379 L229.697291,31.6151924 C227.60233,27.3120865 225.489728,22.9738891 222.561195,19.1839977 C213.594765,7.5686824 196.341113,1.7917299 182.276212,6.82737263 C178.267119,8.26174125 174.575579,11.0164308 172.864327,14.8940512 C172.268917,16.2450773 171.911672,17.7189239 171.047225,18.9164243 C169.119861,21.5877714 165.357754,22.092213 162.667384,24.0134773 C159.231649,26.4830478 157.957031,31.1326831 158.437769,35.3217412 C158.918508,39.5107994 160.850282,43.3796469 162.755593,47.1651519 C164.757934,51.1129554 166.826431,55.179193 170.112211,58.1707508 C171.647045,59.5700278 173.525894,60.8684166 174.015453,62.8817964 C174.434445,64.610057 173.69349,66.3909551 173.847856,68.180626 C173.912251,68.9250398 174.131531,69.6480131 174.491781,70.303667 C167.069006,71.2292076 161.802937,77.3614624 159.44335,86.4852751 C159.297806,87.0511269 159.24047,87.3625647 159.24047,87.3625647 L158.195195,96.8109745 C158.173143,97.2189142 158.195195,97.6136946 158.195195,98.0040885 C158.100282,100.130005 158.555877,102.244545 159.518328,104.145116 L159.518328,137.319825 L127.763141,157.313257 C122.999863,159.418752 124.058369,176.258327 133.584925,179.412184 C143.111481,182.56604 151.583942,162.6077 151.583942,162.6077 C157.383674,162.221693 167.139573,154.527862 172.383589,148.571065 C173.09233,149.70883 174.034672,150.68491 175.148937,151.435416 C171.364777,159.918807 163.880256,177.468987 165.075486,181.030783 C165.794388,183.180143 184.379993,183.377533 204.469559,182.956434 C204.983288,183.240368 205.522156,183.476767 206.079371,183.662652 C208.222846,184.373257 210.313395,183.908293 212.25399,182.76343 C233.988651,182.144941 255,181.030783 255,181.030783 Z M228.180098,116.703518 C228.621143,115.488472 230.067768,114.826118 232.003952,114.510294 L232.003952,127.305564 L228.180098,116.703518 Z M226.332123,71.7424221 L226.393869,71.6503067 L226.332123,71.7424221 Z" id="Shape" fill="url(#linearGradient-1)"></path>
                        <path d="M179,101.487629 C179,101.487629 177.981718,136.840294 176.963435,141.324388 C175.945153,145.808482 161.197921,159.2258 153.556337,159.745885 C153.556337,159.745885 145.414543,178.665614 136.254467,175.680589 C127.094391,172.695563 126.076108,156.760859 130.658379,154.767929 L161.197921,135.843829 L161.197921,98 L179,101.487629 Z" id="Shape" fill="#FDB797"></path>
                        <path d="M176.602526,144 C176.602526,144 163.621673,171.590944 165.120475,176.027983 C166.619277,180.465022 250,176.027983 250,176.027983 C250,176.027983 234.521144,160.753498 237.518748,144 L176.602526,144 Z" id="Shape" fill="#3AD29F"></path>
                        <path d="M187.964906,60.9796076 C187.964906,60.9796076 189.967979,80.4765101 186.462602,84.9788332 C182.957225,89.4811564 200.475324,92 201.977628,92 C203.479933,92 219.495727,86.5015488 222.495943,84.9788332 C225.496159,83.4561177 228,72.4811564 228,72.4811564 C228,72.4811564 212.985742,75.4827052 208.483221,58 L187.964906,60.9796076 Z" id="Shape" fill="#FDB797"></path>
                        <path d="M181.259767,11.7413623 C177.529551,13.1104725 174.088935,15.7342335 172.498298,19.4321517 C171.945033,20.7176185 171.61221,22.1219469 170.808246,23.2665406 C169.014458,25.8110605 165.513328,26.2909094 163.027958,28.1090525 C159.829395,30.4642742 158.645063,34.8929715 159.090268,38.890245 C159.535473,42.8875184 161.333585,46.5722298 163.105761,50.1644931 C164.968708,53.9372501 166.89649,57.8024551 169.952415,60.6551348 C171.378801,61.9758199 173.129366,63.2260684 173.583216,65.1454641 C173.97223,66.7919181 173.284971,68.513211 173.42761,70.1992856 C173.782045,74.3682481 178.674982,76.3096552 182.759633,76.7718949 C184.536133,76.9744 186.567652,76.9832045 187.821143,75.6845309 C188.460856,75.0153838 188.785034,74.1085134 189.187016,73.2720795 C191.082285,69.3655895 194.972574,66.8756872 199.25064,66.8310557 C203.528707,66.7864242 207.468258,69.1946407 209.441699,73.0607699 C210.401268,74.9361427 210.958855,77.2165256 212.700775,78.3435102 C215.367685,80.1044236 218.937973,78.0397526 220.913302,75.4952327 C222.88863,72.9507128 224.306372,69.7722641 227.111598,68.2446717 C227.976074,67.7648228 229.022091,67.4434561 229.61858,66.6246313 C230.694853,65.1498663 229.778508,62.9487246 230.513313,61.2714545 C231.066578,60.0079992 232.419483,59.3168406 233.210479,58.1898561 C234.831373,55.8874618 233.642718,52.7046107 232.445418,50.1556886 L225.408579,35.3420044 C223.459185,31.2390761 221.492501,27.1053319 218.7694,23.4910571 C210.40559,12.4501299 194.34794,6.94287323 181.259767,11.7413623 Z" id="Shape" fill="#E98A8A"></path>
                        <path d="M199.445343,89.7783047 C199.445343,89.7783047 218.672147,89.7783047 223.605425,72 L239.79004,84.5748984 C242.048466,86.3292872 243.488009,88.9366693 243.771282,91.7859522 L245.298867,107.083967 C245.298867,107.083967 247.029842,112.764352 245.052203,116.224617 C245.052203,116.224617 224.592081,111.021211 224.098753,116.966102 L238.379295,156.980296 C238.379295,156.980296 216.192525,157.47462 210.276919,153.511359 C210.276919,153.511359 186.116837,158.450259 180.201231,153.017035 C174.285624,147.583812 168.370017,148.078135 173.277331,135.724382 C173.277331,135.724382 163.415102,125.842246 167.855052,112.009858 C172.295003,98.1774696 168.101716,112.25702 168.101716,112.25702 C168.101716,112.25702 158.525098,107.565282 159.018426,98.6501123 L160.005081,89.7566238 C160.005081,89.7566238 160.057011,89.4617641 160.195489,88.9327511 C163.203057,77.2250871 171.278055,70.7208293 182.63325,74.8662096 C185.952394,76.0716654 189.345105,74.6884266 189.345105,74.6884266 C189.345105,74.6884266 185.640819,90.7669518 199.445343,89.7783047 Z" id="Shape" fill="#000000" opacity="0.1"></path>
                        <path d="M199.445343,88.7783047 C199.445343,88.7783047 218.672147,88.7783047 223.605425,71 L239.79004,83.5748984 C242.048466,85.3292872 243.488009,87.9366693 243.771282,90.7859522 L245.298867,106.083967 C245.298867,106.083967 247.029842,111.764352 245.052203,115.224617 C245.052203,115.224617 224.592081,110.021211 224.098753,115.966102 L238.379295,155.980296 C238.379295,155.980296 216.192525,156.47462 210.276919,152.511359 C210.276919,152.511359 186.116837,157.450259 180.201231,152.017035 C174.285624,146.583812 168.370017,147.078135 173.277331,134.724382 C173.277331,134.724382 163.415102,124.842246 167.855052,111.009858 C172.295003,97.1774696 168.101716,111.25702 168.101716,111.25702 C168.101716,111.25702 158.525098,106.565282 159.018426,97.6717932 L160.005081,88.7783047 C160.005081,88.7783047 160.057011,88.483445 160.195489,87.954432 C163.203057,76.246768 171.278055,69.7425102 182.63325,73.8878905 C185.952394,75.0933462 189.345105,73.7101074 189.345105,73.7101074 C189.345105,73.7101074 185.640819,89.7669518 199.445343,88.7783047 Z" id="Shape" fill="#252A62"></path>
                        <path d="M247,105.495978 C247,105.495978 245.981718,140.844682 244.963435,145.328274 C243.945153,149.811865 229.188989,163.245159 221.556337,163.747706 C221.556337,163.747706 213.414543,182.665315 204.254467,179.680624 C195.094391,176.695933 194.076108,160.763015 198.658379,158.770308 L229.188989,139.852698 L229.188989,102 L247,105.495978 Z" id="Shape" fill="#FDB797"></path>
                        <path d="M225,105.518319 C225,105.518319 236.145594,112.55076 245.844812,111.965383 C245.844812,111.965383 246.814734,99.8860375 243.904969,99.2096891 C240.995203,98.5333407 228.373456,99.2096891 225,105.518319 Z" id="Shape" fill="#000000" opacity="0.1"></path>
                        <path d="M225,105.518319 C225,105.518319 236.145594,112.55076 245.844812,111.965383 C245.844812,111.965383 246.814734,99.8860375 243.904969,99.2096891 C240.995203,98.5333407 228.373456,99.2096891 225,105.518319 Z" id="Shape" fill="#252A62"></path>
                        <path d="M208.926058,60 L189,62.6903493 C189,62.6903493 189.44792,66.7337397 189.537504,71.3789188 C197.442495,74.452813 206.557884,73.086686 213,67.8625851 C211.319232,65.9706874 209.881621,63.414069 208.926058,60 Z" id="Shape" fill="#000000" opacity="0.1"></path>
                        <circle id="Oval" fill="#FDB797" cx="197" cy="50" r="23"></circle>
                        <path d="M203.485231,46.3224243 C202.486882,46.7052409 201.418577,46.8609072 200.355075,46.7785299 C196.211344,46.7511636 192.069103,46.5991284 187.928353,46.3224243 C184.798197,46.1080547 181.444458,45.7294871 179.025294,43.6815732 C175.769931,40.9449399 175.255691,35.7590197 176.937032,31.8000236 C178.618374,27.8410274 182.048131,24.9219518 185.670169,22.6779125 C187.715848,21.3617394 189.931199,20.3424436 192.252441,19.6493716 C198.959919,17.788461 206.400749,20.0735498 211.73543,24.6346053 C217.070111,29.1956608 220.473038,35.781825 222.275114,42.6416525 C222.896673,45.0134014 223.697099,47.8412558 226,48.5710247 C224.466223,51.1708264 220.72345,51.5858824 218.040459,50.2814205 C214.078575,48.3612162 212.048445,41.0087947 208.493482,39.8502866 C204.527126,38.5503857 206.834499,44.7534212 203.485231,46.3224243 Z" id="Shape" fill="#000000" opacity="0.1"></path>
                        <path d="M203.48769,46.3133022 C202.489251,46.6961188 201.420851,46.8517851 200.357253,46.7694078 C196.213152,46.7420415 192.070541,46.5900063 187.92942,46.3133022 C184.798984,46.0989326 181.444945,45.720365 179.025565,43.6724511 C175.769911,40.9358178 175.255625,35.7498976 176.937116,31.7909014 C178.618608,27.8319052 182.048672,24.9128297 185.671034,22.6687904 C187.715999,21.3561817 189.929997,20.3399772 192.249423,19.6493716 C198.957501,17.788461 206.398996,20.0735498 211.734154,24.6346053 C217.069312,29.1956608 220.472544,35.781825 222.274781,42.6416525 C222.896396,45.0134014 223.696893,47.8412558 226,48.5710247 C224.466086,51.1708264 220.722979,51.5858824 218.039747,50.2814205 C214.077509,48.3612162 212.047197,41.0087947 208.491916,39.8502866 C204.529678,38.5412636 206.837257,44.735177 203.48769,46.3133022 Z" id="Shape" fill="#E98A8A"></path>
                        <path d="M174,134 C181.175794,131.997525 188.572488,130.988916 196,131.000092" id="Shape" fill="#000000" opacity="0.1"></path>
                        <path d="M226,108 C226,108 217.007651,113.82189 219.407014,117" id="Shape" fill="#000000" opacity="0.1"></path>
                        <g id="Group" opacity="0.7" transform="translate(31.000000, 162.000000)" fill="url(#linearGradient-2)">
                            <polygon id="Shape" points="245.697433 0.183235294 0.394652406 0.183235294 0.394652406 21.5257843 14.6722995 21.5257843 14.6722995 25.6878431 14.6722995 88.6597059 231.928449 88.6597059 231.928449 25.6878431 231.928449 21.5257843 245.697433 21.5257843"></polygon>
                        </g>
                        <rect id="Rectangle-path" fill="#E0E0E0" x="48" y="175" width="213" height="75"></rect>
                        <rect id="Rectangle-path" fill="#000000" opacity="0.1" x="48" y="178" width="213" height="11"></rect>
                        <rect id="Rectangle-path" fill="#E0E0E0" x="33" y="166" width="239" height="20"></rect>
                        <rect id="Rectangle-path" fill="#535461" x="68" y="161" width="46" height="7" rx="3.5"></rect>
                        <g id="Group" opacity="0.7" transform="translate(95.000000, 88.000000)" fill="url(#linearGradient-3)">
                            <rect id="Rectangle-path" x="0.41259542" y="0.395" width="114.350382" height="78.1882967" rx="28.22"></rect>
                        </g>
                        <rect id="Rectangle-path" fill="#3E3F49" x="99" y="89" width="108" height="76" rx="26.84"></rect>
                        <rect id="Rectangle-path" fill="#535461" x="100" y="89" width="108" height="76" rx="26.84"></rect>
                        <circle id="Oval" fill="#E0E0E0" cx="159" cy="129" r="4"></circle>
                        <path d="M15,177 C15,177 17.7736626,182.358359 26,184" id="Shape" fill="#000000" opacity="0.1"></path>
                    </g>
                </g>
            </g>
        </g>
    </g>
</svg>